<?xml version="1.0" encoding="UTF-8" standalone="no"?>
<svg
   id="Layer_2"
   data-name="Layer 2"
   viewBox="0 0 915.5332 176.70094"
   version="1.1"
   sodipodi:docname="2-lados.svg"
   width="915.5332"
   height="176.70093"
   inkscape:version="1.1 (c68e22c387, 2021-05-23)"
   xmlns:inkscape="http://www.inkscape.org/namespaces/inkscape"
   xmlns:sodipodi="http://sodipodi.sourceforge.net/DTD/sodipodi-0.dtd"
   xmlns:xlink="http://www.w3.org/1999/xlink"
   xmlns="http://www.w3.org/2000/svg"
   xmlns:svg="http://www.w3.org/2000/svg">
  <path
     class="cls-1"
     d="m 61.638117,173.40029 c -19.046033,0 -38.092066,0 -57.1381001,0 C 25.338751,119.64723 46.177484,65.89417 67.016217,12.141112 70.395469,4.6207271 79.189221,2.4519087 86.737451,3.1553619 89.082844,3.8023554 93.285949,1.7356694 94.232668,4.4257978 114.36142,56.291158 134.49017,108.15652 154.61892,160.02188 c 1.93243,6.9146 -4.13707,13.73739 -11.20036,12.81054 -2.32309,-0.64127 -6.59982,1.56846 -7.12639,-1.69452 C 118.25536,124.53589 100.21854,77.933881 82.181717,31.331872 66.22005,72.402437 50.258384,113.47301 34.296717,154.54357 c 7.803167,0.39891 16.949527,-1.83791 22.929846,4.69911 3.556947,3.74337 4.58784,9.15855 4.411554,14.15761 z"
     id="path16"
     style="fill:url(#linearGradient79601);fill-opacity:1;stroke-width:1.67022" />
  <path
     class="cls-2"
     d="m 207.06362,3.4560019 h 57.1714 L 201.71892,164.71518 c 0,0 -2.8728,7.54936 -13.3617,8.98575 h -13.3617 L 114.14962,16.834412 c 0,0 -2.5721,-11.8585101 9.8543,-12.8105401 h 7.7331 l 54.8164,141.5673481 47.885,-123.211688 h -12.6435 c 0,0 -15.2992,-0.28394 -14.7313,-18.9235301 z"
     id="path18"
     style="fill:url(#linearGradient78820);fill-opacity:1;stroke-width:1.67022" />
  <g
     aria-label="Os 2 Lados da Notícia"
     transform="scale(0.93979186,1.0640654)"
     id="text1156"
     style="font-size:71.827px;line-height:1.25;letter-spacing:-2.57066px;fill:#333333;stroke-width:1.91072">
    <path
       d="m 305.48797,118.23584 q -6.53626,0 -11.27684,-2.15481 -4.74058,-2.15481 -7.39818,-6.46443 -2.6576,-4.38145 -2.87308,-10.989531 -0.0718,-3.088562 -0.0718,-6.105296 0,-3.088561 0.0718,-6.248949 0.21548,-6.46443 2.87308,-10.845878 2.72942,-4.453274 7.47001,-6.679911 4.81241,-2.226637 11.20501,-2.226637 6.32078,0 11.06136,2.226637 4.81241,2.226637 7.54183,6.679911 2.72943,4.381448 2.87308,10.845878 0.14366,3.160388 0.14366,6.248949 0,3.016734 -0.14366,6.105296 -0.21548,6.608081 -2.87308,10.989531 -2.6576,4.30962 -7.39818,6.46443 -4.74058,2.15481 -11.20501,2.15481 z m 0,-9.26568 q 4.16597,0 6.82357,-2.51395 2.72942,-2.58577 2.87308,-8.188276 0.14365,-3.160389 0.14365,-5.889815 0,-2.801253 -0.14365,-5.889814 -0.0718,-3.735004 -1.36472,-6.105295 -1.29288,-2.370291 -3.44769,-3.447696 -2.08299,-1.149233 -4.88424,-1.149233 -2.80125,0 -4.95606,1.149233 -2.15481,1.077405 -3.4477,3.447696 -1.22106,2.370291 -1.36471,6.105295 -0.0718,3.088561 -0.0718,5.889814 0,2.729426 0.0718,5.889815 0.21548,5.602506 2.87308,8.188276 2.6576,2.51395 6.89539,2.51395 z"
       style="font-weight:600;font-family:Rubik;-inkscape-font-specification:'Rubik Semi-Bold'"
       id="path32758" />
    <path
       d="m 347.37816,118.23584 q -4.45327,0 -7.68549,-1.00558 -3.16039,-1.0774 -5.17154,-2.58577 -1.93933,-1.50837 -2.94491,-3.01673 -0.93375,-1.5802 -1.00558,-2.6576 -0.0718,-0.7901 0.50279,-1.29289 0.57462,-0.50279 1.14923,-0.50279 h 6.96722 q 0.21548,0 0.43097,0.0718 0.21548,0.0718 0.43096,0.35913 0.93375,0.64645 1.93933,1.50837 1.00557,0.7901 2.29846,1.36471 1.36471,0.57462 3.37587,0.57462 2.37029,0 4.02231,-0.93375 1.65202,-1.00558 1.65202,-2.80125 0,-1.29289 -0.79009,-2.15481 -0.71827,-0.86193 -2.80126,-1.5802 -2.08298,-0.71827 -6.17712,-1.58019 -3.87866,-0.86193 -6.60808,-2.298466 -2.72943,-1.43654 -4.09414,-3.591351 -1.36472,-2.226637 -1.36472,-5.315198 0,-2.801253 1.72385,-5.387025 1.79568,-2.585772 5.24337,-4.237793 3.4477,-1.723848 8.61924,-1.723848 3.95049,0 6.8954,1.005578 3.01673,0.933751 5.02789,2.442118 2.01115,1.43654 3.01673,3.016734 1.07741,1.508367 1.14923,2.657599 0.0718,0.71827 -0.43096,1.221059 -0.50279,0.502789 -1.14923,0.502789 h -6.3926 q -0.35914,0 -0.64645,-0.07183 -0.28731,-0.143654 -0.50279,-0.359135 -0.86192,-0.574616 -1.79567,-1.292886 -0.86193,-0.790097 -2.08299,-1.364713 -1.22105,-0.574616 -3.16038,-0.574616 -2.37029,0 -3.66318,1.077405 -1.22106,1.005578 -1.22106,2.585772 0,1.005578 0.64644,1.867502 0.64645,0.861924 2.6576,1.580194 2.01116,0.71827 6.1053,1.508367 4.88423,0.861924 7.75731,2.585773 2.87308,1.723848 4.09414,4.022308 1.29289,2.22664 1.29289,4.81241 0,3.37587 -2.01116,6.03347 -2.01115,2.58577 -5.88981,4.09414 -3.80683,1.43654 -9.40934,1.43654 z"
       style="font-weight:600;font-family:Rubik;-inkscape-font-specification:'Rubik Semi-Bold'"
       id="path32760" />
    <path
       d="m 382.67534,117.51757 q -0.79009,0 -1.29288,-0.50279 -0.50279,-0.50279 -0.50279,-1.29288 v -4.30962 q 0,-0.57462 0.28731,-1.50837 0.35913,-1.00558 1.50836,-1.93933 l 9.48117,-9.409338 q 5.24337,-4.022313 8.47558,-6.823566 3.30405,-2.801253 4.88424,-5.099717 1.58019,-2.298464 1.58019,-4.453274 0,-2.801253 -1.58019,-4.596928 -1.50837,-1.867503 -4.95606,-1.867503 -2.29847,0 -3.87866,1.005579 -1.50837,0.933751 -2.37029,2.513945 -0.86193,1.580194 -1.14923,3.447696 -0.21549,0.933751 -0.93376,1.292886 -0.64644,0.359135 -1.36471,0.359135 h -7.61366 q -0.71827,0 -1.14923,-0.430962 -0.43096,-0.502789 -0.43096,-1.077405 0.0718,-3.304042 1.36471,-6.248949 1.36471,-2.944908 3.80683,-5.243372 2.44212,-2.298464 5.88981,-3.59135 3.4477,-1.364713 7.82915,-1.364713 6.03347,0 10.1276,2.011156 4.09414,1.939329 6.17713,5.387025 2.08298,3.447697 2.08298,7.972798 0,3.447696 -1.43654,6.392603 -1.36471,2.944907 -4.02231,5.674333 -2.6576,2.657599 -6.32078,5.53068 l -8.47558,8.475591 h 19.53694 q 0.7901,0 1.29289,0.50278 0.50279,0.50279 0.50279,1.29289 v 6.1053 q 0,0.79009 -0.50279,1.29288 -0.50279,0.50279 -1.29289,0.50279 z"
       style="font-weight:600;font-family:Rubik;-inkscape-font-specification:'Rubik Semi-Bold'"
       id="path32762" />
    <path
       d="m 441.17258,117.51757 q -0.7901,0 -1.29289,-0.50279 -0.50279,-0.50279 -0.50279,-1.29288 V 69.034343 q 0,-0.790097 0.50279,-1.292886 0.50279,-0.502789 1.29289,-0.502789 h 7.9728 q 0.79009,0 1.29288,0.502789 0.50279,0.502789 0.50279,1.292886 v 38.858407 h 22.26637 q 0.7901,0 1.29289,0.50279 0.50279,0.50279 0.50279,1.29289 v 6.03347 q 0,0.79009 -0.50279,1.29288 -0.50279,0.50279 -1.29289,0.50279 z"
       style="font-weight:600;font-family:Rubik;-inkscape-font-specification:'Rubik Semi-Bold'"
       id="path32764" />
    <path
       d="m 489.2399,118.23584 q -3.80683,0 -6.82357,-1.43654 -3.01673,-1.50837 -4.81241,-4.02231 -1.79567,-2.51395 -1.79567,-5.60251 0,-5.09972 4.09414,-8.044622 4.16596,-2.944908 10.9177,-4.022313 l 9.40934,-1.364713 v -1.292886 q 0,-2.801253 -1.29289,-4.30962 -1.29288,-1.508367 -4.5251,-1.508367 -2.37029,0 -3.80683,0.933751 -1.43654,0.933751 -2.22664,2.442118 -0.57461,0.933751 -1.65202,0.933751 h -6.82356 q -0.7901,0 -1.22106,-0.430962 -0.43096,-0.502789 -0.35914,-1.149232 0,-1.221059 0.93375,-2.87308 0.93376,-1.652021 2.87308,-3.232215 1.93933,-1.652021 4.95607,-2.729426 3.01673,-1.077405 7.39818,-1.077405 4.5251,0 7.75732,1.077405 3.23221,1.077405 5.17154,3.016734 1.93933,1.939329 2.87308,4.525101 0.93375,2.513945 0.93375,5.458852 V 115.7219 q 0,0.79009 -0.50279,1.29288 -0.50279,0.50279 -1.29288,0.50279 h -7.03905 q -0.71827,0 -1.22106,-0.50279 -0.50279,-0.50279 -0.50279,-1.29288 v -2.6576 q -0.93375,1.36471 -2.51394,2.58577 -1.5802,1.14923 -3.80683,1.8675 -2.15481,0.71827 -5.09972,0.71827 z m 2.87308,-7.47001 q 2.37029,0 4.23779,-1.00558 1.8675,-1.00557 2.94491,-3.08856 1.0774,-2.08298 1.0774,-5.24337 v -1.22106 l -6.67991,1.07741 q -3.87866,0.64644 -5.67433,1.93933 -1.79568,1.29288 -1.79568,3.16038 0,1.36472 0.7901,2.3703 0.86193,1.00557 2.22664,1.50836 1.36471,0.50279 2.87308,0.50279 z"
       style="font-weight:600;font-family:Rubik;-inkscape-font-specification:'Rubik Semi-Bold'"
       id="path32766" />
    <path
       d="m 531.20198,118.23584 q -3.59135,0 -6.3926,-1.14923 -2.80125,-1.22106 -4.74058,-3.4477 -1.93933,-2.29846 -2.94491,-5.38702 -1.00558,-3.16039 -1.22106,-6.96722 -0.0718,-1.364715 -0.0718,-2.44212 0,-1.149232 0.0718,-2.442119 0.14366,-3.735004 1.14923,-6.823565 1.07741,-3.088561 2.94491,-5.315198 1.93933,-2.298464 4.74058,-3.519523 2.87308,-1.292886 6.46443,-1.292886 3.73501,0 6.39261,1.292886 2.6576,1.221059 4.38144,3.232215 V 68.316073 q 0,-0.790097 0.50279,-1.292886 0.50279,-0.502789 1.29289,-0.502789 h 7.39818 q 0.71827,0 1.22106,0.502789 0.50279,0.502789 0.50279,1.292886 V 115.7219 q 0,0.79009 -0.50279,1.29288 -0.50279,0.50279 -1.22106,0.50279 h -6.89539 q -0.71827,0 -1.22106,-0.50279 -0.50279,-0.50279 -0.50279,-1.29288 v -2.44212 q -1.79568,2.15481 -4.5251,3.59135 -2.72943,1.36471 -6.82357,1.36471 z m 3.30405,-8.61924 q 2.65759,0 4.23779,-1.22106 1.65202,-1.22106 2.37029,-3.08856 0.7901,-1.8675 0.86192,-4.02231 0.14366,-1.364715 0.14366,-2.729428 0,-1.364713 -0.14366,-2.6576 -0.0718,-2.011156 -0.86192,-3.735004 -0.7901,-1.795675 -2.44212,-2.944907 -1.58019,-1.149232 -4.16596,-1.149232 -2.72943,0 -4.30963,1.221059 -1.58019,1.149232 -2.29846,3.088561 -0.64644,1.939329 -0.7901,4.237793 -0.21548,2.226638 0,4.453278 0.14366,2.29846 0.7901,4.23779 0.71827,1.93933 2.29846,3.16039 1.5802,1.14923 4.30963,1.14923 z"
       style="font-weight:600;font-family:Rubik;-inkscape-font-specification:'Rubik Semi-Bold'"
       id="path32768" />
    <path
       d="m 576.53991,118.23584 q -5.96164,0 -9.98395,-1.93933 -4.02231,-2.01115 -6.17712,-5.67433 -2.08299,-3.66318 -2.29847,-8.54742 -0.0718,-1.43654 -0.0718,-3.23221 0,-1.867502 0.0718,-3.232216 0.21548,-4.956063 2.44212,-8.547413 2.22664,-3.663177 6.24895,-5.602506 4.02231,-2.011156 9.76847,-2.011156 5.67433,0 9.69665,2.011156 4.02231,1.939329 6.24895,5.602506 2.22663,3.59135 2.44211,8.547413 0.14366,1.364714 0.14366,3.232216 0,1.79567 -0.14366,3.23221 -0.21548,4.88424 -2.37029,8.54742 -2.08298,3.66318 -6.10529,5.67433 -4.02231,1.93933 -9.91213,1.93933 z m 0,-7.90097 q 3.51952,0 5.3152,-2.15481 1.79567,-2.22664 1.93933,-6.46443 0.0718,-1.07741 0.0718,-2.87308 0,-1.795675 -0.0718,-2.873081 -0.14366,-4.165966 -1.93933,-6.392603 -1.79568,-2.226637 -5.3152,-2.226637 -3.51952,0 -5.38702,2.226637 -1.79568,2.226637 -1.93933,6.392603 -0.0718,1.077406 -0.0718,2.873081 0,1.79567 0.0718,2.87308 0.14365,4.23779 1.93933,6.46443 1.8675,2.15481 5.38702,2.15481 z"
       style="font-weight:600;font-family:Rubik;-inkscape-font-specification:'Rubik Semi-Bold'"
       id="path32770" />
    <path
       d="m 614.76697,118.23584 q -4.45327,0 -7.68549,-1.00558 -3.16039,-1.0774 -5.17154,-2.58577 -1.93933,-1.50837 -2.94491,-3.01673 -0.93375,-1.5802 -1.00558,-2.6576 -0.0718,-0.7901 0.50279,-1.29289 0.57462,-0.50279 1.14923,-0.50279 h 6.96722 q 0.21548,0 0.43096,0.0718 0.21549,0.0718 0.43097,0.35913 0.93375,0.64645 1.93933,1.50837 1.00557,0.7901 2.29846,1.36471 1.36471,0.57462 3.37587,0.57462 2.37029,0 4.02231,-0.93375 1.65202,-1.00558 1.65202,-2.80125 0,-1.29289 -0.79009,-2.15481 -0.71827,-0.86193 -2.80126,-1.5802 -2.08298,-0.71827 -6.17712,-1.58019 -3.87866,-0.86193 -6.60808,-2.298466 -2.72943,-1.43654 -4.09414,-3.591351 -1.36472,-2.226637 -1.36472,-5.315198 0,-2.801253 1.72385,-5.387025 1.79568,-2.585772 5.24337,-4.237793 3.4477,-1.723848 8.61924,-1.723848 3.95049,0 6.8954,1.005578 3.01673,0.933751 5.02789,2.442118 2.01115,1.43654 3.01673,3.016734 1.0774,1.508367 1.14923,2.657599 0.0718,0.71827 -0.43096,1.221059 -0.50279,0.502789 -1.14923,0.502789 h -6.39261 q -0.35913,0 -0.64644,-0.07183 -0.28731,-0.143654 -0.50279,-0.359135 -0.86192,-0.574616 -1.79567,-1.292886 -0.86193,-0.790097 -2.08299,-1.364713 -1.22106,-0.574616 -3.16038,-0.574616 -2.3703,0 -3.66318,1.077405 -1.22106,1.005578 -1.22106,2.585772 0,1.005578 0.64644,1.867502 0.64645,0.861924 2.6576,1.580194 2.01116,0.71827 6.1053,1.508367 4.88423,0.861924 7.75731,2.585773 2.87308,1.723848 4.09414,4.022308 1.29289,2.22664 1.29289,4.81241 0,3.37587 -2.01116,6.03347 -2.01115,2.58577 -5.88981,4.09414 -3.80683,1.43654 -9.40934,1.43654 z"
       style="font-weight:600;font-family:Rubik;-inkscape-font-specification:'Rubik Semi-Bold'"
       id="path32772" />
    <path
       d="m 663.56764,118.23584 q -3.59135,0 -6.3926,-1.14923 -2.80125,-1.22106 -4.74058,-3.4477 -1.93933,-2.29846 -2.94491,-5.38702 -1.00558,-3.16039 -1.22106,-6.96722 -0.0718,-1.364715 -0.0718,-2.44212 0,-1.149232 0.0718,-2.442119 0.14366,-3.735004 1.14923,-6.823565 1.07741,-3.088561 2.94491,-5.315198 1.93933,-2.298464 4.74058,-3.519523 2.87308,-1.292886 6.46443,-1.292886 3.73501,0 6.39261,1.292886 2.6576,1.221059 4.38145,3.232215 V 68.316073 q 0,-0.790097 0.50278,-1.292886 0.50279,-0.502789 1.29289,-0.502789 h 7.39818 q 0.71827,0 1.22106,0.502789 0.50279,0.502789 0.50279,1.292886 V 115.7219 q 0,0.79009 -0.50279,1.29288 -0.50279,0.50279 -1.22106,0.50279 h -6.89539 q -0.71827,0 -1.22106,-0.50279 -0.50279,-0.50279 -0.50279,-1.29288 v -2.44212 q -1.79567,2.15481 -4.5251,3.59135 -2.72943,1.36471 -6.82357,1.36471 z m 3.30405,-8.61924 q 2.6576,0 4.23779,-1.22106 1.65202,-1.22106 2.37029,-3.08856 0.7901,-1.8675 0.86193,-4.02231 0.14365,-1.364715 0.14365,-2.729428 0,-1.364713 -0.14365,-2.6576 -0.0718,-2.011156 -0.86193,-3.735004 -0.7901,-1.795675 -2.44212,-2.944907 -1.58019,-1.149232 -4.16596,-1.149232 -2.72943,0 -4.30962,1.221059 -1.5802,1.149232 -2.29847,3.088561 -0.64644,1.939329 -0.79009,4.237793 -0.21549,2.226638 0,4.453278 0.14365,2.29846 0.79009,4.23779 0.71827,1.93933 2.29847,3.16039 1.58019,1.14923 4.30962,1.14923 z"
       style="font-weight:600;font-family:Rubik;-inkscape-font-specification:'Rubik Semi-Bold'"
       id="path32774" />
    <path
       d="m 702.80028,118.23584 q -3.80683,0 -6.82357,-1.43654 -3.01673,-1.50837 -4.81241,-4.02231 -1.79567,-2.51395 -1.79567,-5.60251 0,-5.09972 4.09414,-8.044622 4.16596,-2.944908 10.9177,-4.022313 l 9.40934,-1.364713 v -1.292886 q 0,-2.801253 -1.29289,-4.30962 -1.29288,-1.508367 -4.5251,-1.508367 -2.37029,0 -3.80683,0.933751 -1.43654,0.933751 -2.22664,2.442118 -0.57461,0.933751 -1.65202,0.933751 h -6.82356 q -0.7901,0 -1.22106,-0.430962 -0.43096,-0.502789 -0.35914,-1.149232 0,-1.221059 0.93375,-2.87308 0.93375,-1.652021 2.87308,-3.232215 1.93933,-1.652021 4.95607,-2.729426 3.01673,-1.077405 7.39818,-1.077405 4.5251,0 7.75731,1.077405 3.23222,1.077405 5.17155,3.016734 1.93933,1.939329 2.87308,4.525101 0.93375,2.513945 0.93375,5.458852 V 115.7219 q 0,0.79009 -0.50279,1.29288 -0.50279,0.50279 -1.29288,0.50279 h -7.03905 q -0.71827,0 -1.22106,-0.50279 -0.50279,-0.50279 -0.50279,-1.29288 v -2.6576 q -0.93375,1.36471 -2.51394,2.58577 -1.5802,1.14923 -3.80684,1.8675 -2.15481,0.71827 -5.09971,0.71827 z m 2.87308,-7.47001 q 2.37029,0 4.23779,-1.00558 1.8675,-1.00557 2.94491,-3.08856 1.0774,-2.08298 1.0774,-5.24337 v -1.22106 l -6.67991,1.07741 q -3.87866,0.64644 -5.67433,1.93933 -1.79568,1.29288 -1.79568,3.16038 0,1.36472 0.7901,2.3703 0.86192,1.00557 2.22664,1.50836 1.36471,0.50279 2.87308,0.50279 z"
       style="font-weight:600;font-family:Rubik;-inkscape-font-specification:'Rubik Semi-Bold'"
       id="path32776" />
    <path
       d="m 746.78852,117.51757 q -0.7901,0 -1.29289,-0.50279 -0.50279,-0.50279 -0.50279,-1.29288 V 69.034343 q 0,-0.790097 0.50279,-1.292886 0.50279,-0.502789 1.29289,-0.502789 h 6.53625 q 1.07741,0 1.5802,0.502789 0.50279,0.502789 0.64644,0.790097 l 19.17781,29.951861 V 69.034343 q 0,-0.790097 0.50279,-1.292886 0.50279,-0.502789 1.22106,-0.502789 h 7.32635 q 0.7901,0 1.29289,0.502789 0.50279,0.502789 0.50279,1.292886 V 115.7219 q 0,0.71827 -0.50279,1.29288 -0.50279,0.50279 -1.29289,0.50279 h -6.60808 q -1.07741,0 -1.5802,-0.50279 -0.43096,-0.57461 -0.64644,-0.7901 L 755.83872,87.206575 V 115.7219 q 0,0.79009 -0.50279,1.29288 -0.50279,0.50279 -1.29289,0.50279 z"
       style="font-weight:600;font-family:Rubik;-inkscape-font-specification:'Rubik Semi-Bold'"
       id="path32778" />
    <path
       d="m 809.93954,118.23584 q -5.96164,0 -9.98395,-1.93933 -4.02232,-2.01115 -6.17713,-5.67433 -2.08298,-3.66318 -2.29846,-8.54742 -0.0718,-1.43654 -0.0718,-3.23221 0,-1.867502 0.0718,-3.232216 0.21548,-4.956063 2.44212,-8.547413 2.22663,-3.663177 6.24895,-5.602506 4.02231,-2.011156 9.76847,-2.011156 5.67433,0 9.69664,2.011156 4.02232,1.939329 6.24895,5.602506 2.22664,3.59135 2.44212,8.547413 0.14366,1.364714 0.14366,3.232216 0,1.79567 -0.14366,3.23221 -0.21548,4.88424 -2.37029,8.54742 -2.08298,3.66318 -6.10529,5.67433 -4.02232,1.93933 -9.91213,1.93933 z m 0,-7.90097 q 3.51952,0 5.3152,-2.15481 1.79567,-2.22664 1.93933,-6.46443 0.0718,-1.07741 0.0718,-2.87308 0,-1.795675 -0.0718,-2.873081 -0.14366,-4.165966 -1.93933,-6.392603 -1.79568,-2.226637 -5.3152,-2.226637 -3.51952,0 -5.38703,2.226637 -1.79567,2.226637 -1.93933,6.392603 -0.0718,1.077406 -0.0718,2.873081 0,1.79567 0.0718,2.87308 0.14366,4.23779 1.93933,6.46443 1.86751,2.15481 5.38703,2.15481 z"
       style="font-weight:600;font-family:Rubik;-inkscape-font-specification:'Rubik Semi-Bold'"
       id="path32780" />
    <path
       d="m 851.1833,117.51757 q -4.45328,0 -7.61366,-1.43654 -3.16039,-1.50837 -4.81241,-4.59693 -1.5802,-3.08856 -1.5802,-7.75731 V 88.643115 h -5.6025 q -0.7901,0 -1.29289,-0.502789 -0.50279,-0.502789 -0.50279,-1.292886 v -4.884236 q 0,-0.790097 0.50279,-1.292886 0.50279,-0.502789 1.29289,-0.502789 h 5.6025 V 68.316073 q 0,-0.790097 0.50279,-1.292886 0.57462,-0.502789 1.29289,-0.502789 h 7.03904 q 0.7901,0 1.29289,0.502789 0.50279,0.502789 0.50279,1.292886 v 11.851456 h 8.97837 q 0.71827,0 1.22106,0.502789 0.50279,0.502789 0.50279,1.292886 v 4.884236 q 0,0.790097 -0.50279,1.292886 -0.50279,0.502789 -1.22106,0.502789 h -8.97837 v 14.221745 q 0,2.72943 0.93375,4.30962 1.00558,1.50837 3.4477,1.50837 h 5.24337 q 0.71827,0 1.22106,0.50279 0.50279,0.50279 0.50279,1.22106 v 5.3152 q 0,0.79009 -0.50279,1.29288 -0.50279,0.50279 -1.22106,0.50279 z"
       style="font-weight:600;font-family:Rubik;-inkscape-font-specification:'Rubik Semi-Bold'"
       id="path32782" />
    <path
       d="m 864.55824,117.51757 q -0.71827,0 -1.22105,-0.50279 -0.50279,-0.50279 -0.50279,-1.29288 V 81.963204 q 0,-0.790097 0.50279,-1.292886 0.50278,-0.502789 1.22105,-0.502789 h 7.18271 q 0.79009,0 1.29288,0.502789 0.50279,0.502789 0.50279,1.292886 V 115.7219 q 0,0.79009 -0.50279,1.29288 -0.50279,0.50279 -1.29288,0.50279 z m 0,-42.737067 q -1.14923,0 -1.14923,-1.149232 0,-0.574616 0.35914,-0.933751 l 6.10529,-7.398181 q 0.64645,-0.861924 1.14924,-1.077405 0.57461,-0.287308 1.50836,-0.287308 h 8.26011 q 1.36471,0 1.36471,1.43654 0,0.502789 -0.35913,0.861924 l -9.26569,7.541835 q -0.57461,0.502789 -1.14923,0.790097 -0.50279,0.215481 -1.43654,0.215481 z"
       style="font-weight:600;font-family:Rubik;-inkscape-font-specification:'Rubik Semi-Bold'"
       id="path32784" />
    <path
       d="m 896.82353,118.23584 q -5.24337,0 -9.26568,-1.93933 -3.95049,-1.93933 -6.24895,-5.6025 -2.29847,-3.73501 -2.51395,-8.90655 -0.0718,-1.14924 -0.0718,-2.873083 0,-1.795675 0.0718,-2.944908 0.21548,-5.243371 2.44212,-8.906548 2.29846,-3.735004 6.32078,-5.674333 4.02231,-1.939329 9.26568,-1.939329 4.81241,0 8.18828,1.364713 3.37587,1.292886 5.53068,3.304042 2.15481,2.011156 3.16039,4.237793 1.0774,2.15481 1.14923,3.806831 0.0718,0.71827 -0.50279,1.292886 -0.50279,0.502789 -1.22106,0.502789 h -7.68549 q -0.71827,0 -1.14923,-0.359135 -0.35914,-0.430962 -0.71827,-1.149232 -1.00558,-2.513945 -2.58577,-3.59135 -1.5802,-1.077405 -3.95049,-1.077405 -3.23221,0 -5.09972,2.082983 -1.8675,2.082983 -2.01115,6.46443 -0.0718,2.801254 0,5.099716 0.21548,4.45328 2.01115,6.46443 1.86751,2.01116 5.09972,2.01116 2.51395,0 4.02231,-1.07741 1.50837,-1.0774 2.51395,-3.59135 0.28731,-0.71827 0.71827,-1.0774 0.43096,-0.43096 1.14923,-0.43096 h 7.68549 q 0.71827,0 1.22106,0.57461 0.57461,0.50279 0.50279,1.22106 -0.0718,1.22106 -0.71827,2.87308 -0.57462,1.65202 -1.93933,3.37587 -1.29289,1.72385 -3.37587,3.23222 -2.08298,1.43654 -5.09972,2.37029 -2.94491,0.86192 -6.89539,0.86192 z"
       style="font-weight:600;font-family:Rubik;-inkscape-font-specification:'Rubik Semi-Bold'"
       id="path32786" />
    <path
       d="m 921.04433,117.51757 q -0.71827,0 -1.22106,-0.50279 -0.50279,-0.50279 -0.50279,-1.29288 V 81.963204 q 0,-0.790097 0.50279,-1.292886 0.50279,-0.502789 1.22106,-0.502789 h 7.1827 q 0.7901,0 1.29289,0.502789 0.50278,0.502789 0.50278,1.292886 V 115.7219 q 0,0.79009 -0.50278,1.29288 -0.50279,0.50279 -1.29289,0.50279 z m -0.21548,-43.096202 q -0.71827,0 -1.22106,-0.502789 Q 919.105,73.41579 919.105,72.625693 v -5.74616 q 0,-0.790097 0.50279,-1.292886 0.50279,-0.574616 1.22106,-0.574616 h 7.54183 q 0.7901,0 1.29289,0.574616 0.57462,0.502789 0.57462,1.292886 v 5.74616 q 0,0.790097 -0.57462,1.292886 -0.50279,0.502789 -1.29289,0.502789 z"
       style="font-weight:600;font-family:Rubik;-inkscape-font-specification:'Rubik Semi-Bold'"
       id="path32788" />
    <path
       d="m 947.41981,118.23584 q -3.80683,0 -6.82356,-1.43654 -3.01673,-1.50837 -4.81241,-4.02231 -1.79568,-2.51395 -1.79568,-5.60251 0,-5.09972 4.09414,-8.044622 4.16597,-2.944908 10.91771,-4.022313 l 9.40934,-1.364713 v -1.292886 q 0,-2.801253 -1.29289,-4.30962 -1.29289,-1.508367 -4.5251,-1.508367 -2.37029,0 -3.80683,0.933751 -1.43654,0.933751 -2.22664,2.442118 -0.57462,0.933751 -1.65202,0.933751 h -6.82357 q -0.79009,0 -1.22105,-0.430962 -0.43097,-0.502789 -0.35914,-1.149232 0,-1.221059 0.93375,-2.87308 0.93375,-1.652021 2.87308,-3.232215 1.93933,-1.652021 4.95606,-2.729426 3.01674,-1.077405 7.39819,-1.077405 4.5251,0 7.75731,1.077405 3.23222,1.077405 5.17155,3.016734 1.93933,1.939329 2.87308,4.525101 0.93375,2.513945 0.93375,5.458852 V 115.7219 q 0,0.79009 -0.50279,1.29288 -0.50279,0.50279 -1.29289,0.50279 h -7.03904 q -0.71827,0 -1.22106,-0.50279 -0.50279,-0.50279 -0.50279,-1.29288 v -2.6576 q -0.93375,1.36471 -2.51395,2.58577 -1.58019,1.14923 -3.80683,1.8675 -2.15481,0.71827 -5.09972,0.71827 z m 2.87308,-7.47001 q 2.3703,0 4.2378,-1.00558 1.8675,-1.00557 2.94491,-3.08856 1.0774,-2.08298 1.0774,-5.24337 v -1.22106 l -6.67991,1.07741 q -3.87866,0.64644 -5.67433,1.93933 -1.79568,1.29288 -1.79568,3.16038 0,1.36472 0.7901,2.3703 0.86192,1.00557 2.22663,1.50836 1.36472,0.50279 2.87308,0.50279 z"
       style="font-weight:600;font-family:Rubik;-inkscape-font-specification:'Rubik Semi-Bold'"
       id="path32790" />
  </g>
  <sodipodi:namedview
     id="namedview87"
     pagecolor="#ffffff"
     bordercolor="#666666"
     borderopacity="1.0"
     inkscape:pageshadow="2"
     inkscape:pageopacity="0.0"
     inkscape:pagecheckerboard="0"
     showgrid="false"
     fit-margin-top="0"
     fit-margin-left="0"
     fit-margin-right="0"
     fit-margin-bottom="0"
     inkscape:zoom="0.82730178"
     inkscape:cx="447.23704"
     inkscape:cy="121.47925"
     inkscape:window-width="1920"
     inkscape:window-height="1016"
     inkscape:window-x="1920"
     inkscape:window-y="27"
     inkscape:window-maximized="1"
     inkscape:current-layer="Layer_2"
     width="915.5332px" />
  <defs
     id="defs14">
    <linearGradient
       id="linearGradient78890"
       x1="248.97"
       y1="189.06"
       x2="248.97"
       y2="85.980003"
       gradientUnits="userSpaceOnUse"
       gradientTransform="matrix(0.58023559,0,0,0.58023559,-37.028279,-29.124855)"
       spreadMethod="pad">
      <stop
         offset="0.45436519"
         stop-color="#3e070b"
         id="stop78886"
         style="stop-color:#9c2d05;stop-opacity:1" />
      <stop
         offset="1"
         stop-color="#cd642c"
         id="stop78888"
         style="stop-color:#f26912;stop-opacity:1" />
    </linearGradient>
    <linearGradient
       id="linearGradient76468"
       x1="406.5"
       y1="128.63"
       x2="406.5"
       y2="25.549999"
       gradientTransform="matrix(-0.58023559,0,0,-0.58023559,381.32738,96.165416)"
       gradientUnits="userSpaceOnUse"
       spreadMethod="pad">
      <stop
         offset="0"
         stop-color="#cd642c"
         id="stop76464"
         style="stop-color:#ee6612;stop-opacity:1" />
      <stop
         offset="1"
         stop-color="#3e070b"
         id="stop76466" />
    </linearGradient>
    <linearGradient
       id="linearGradient76189"
       x1="406.5"
       y1="128.63"
       x2="406.5"
       y2="25.549999"
       gradientTransform="matrix(-0.58023559,0,0,-0.58023559,381.32738,96.165416)"
       gradientUnits="userSpaceOnUse"
       spreadMethod="pad">
      <stop
         offset="0"
         stop-color="#cd642c"
         id="stop76185"
         style="stop-color:#ee6612;stop-opacity:1" />
      <stop
         offset="1"
         stop-color="#3e070b"
         id="stop76187" />
    </linearGradient>
    <linearGradient
       id="linearGradient67181"
       x1="406.5"
       y1="128.63"
       x2="406.5"
       y2="25.549999"
       gradientTransform="matrix(-0.58023559,0,0,-0.58023559,381.32738,96.165416)"
       gradientUnits="userSpaceOnUse"
       spreadMethod="pad">
      <stop
         offset="0"
         stop-color="#cd642c"
         id="stop67177" />
      <stop
         offset="1"
         stop-color="#3e070b"
         id="stop67179"
         style="stop-color:#9e2f05;stop-opacity:1" />
    </linearGradient>
    <linearGradient
       id="linearGradient58088"
       x1="406.5"
       y1="128.63"
       x2="406.5"
       y2="25.549999"
       gradientTransform="matrix(-0.58023559,0,0,-0.58023559,381.32738,96.165416)"
       gradientUnits="userSpaceOnUse"
       spreadMethod="pad">
      <stop
         offset="0"
         stop-color="#cd642c"
         id="stop58084" />
      <stop
         offset="1"
         stop-color="#3e070b"
         id="stop58086"
         style="stop-color:#a02f06;stop-opacity:1" />
    </linearGradient>
    <linearGradient
       id="linearGradient57731"
       x1="406.5"
       y1="128.63"
       x2="406.5"
       y2="25.549999"
       gradientTransform="matrix(-0.58023559,0,0,-0.58023559,381.32738,96.165416)"
       gradientUnits="userSpaceOnUse">
      <stop
         offset="0"
         stop-color="#cd642c"
         id="stop57727" />
      <stop
         offset="1"
         stop-color="#3e070b"
         id="stop57729"
         style="stop-color:#a02f06;stop-opacity:1" />
    </linearGradient>
    <style
       id="style2">
      .cls-1 {
        fill: url(#linear-gradient);
      }

      .cls-2 {
        fill: url(#linear-gradient-2);
      }

      .cls-3 {
        fill: #232323;
      }
.cls-4 { 
    font-family:Calibri;
    font-size:13.78px;
    letter-spacing:0.27em;
}

      .cls-5 {
        letter-spacing: 0.28em;
      }

      .cls-6 {
        letter-spacing: 0.28em;
      }

      .cls-7 {
        letter-spacing: 0.27em;
      }

      .cls-8 {
        letter-spacing: 0.27em;
      }

      .cls-9 {
        letter-spacing: 0.28em;
      }

      .cls-10 {
        letter-spacing: 0.2em;
      }

      .cls-11 {
        letter-spacing: 0.27em;
      }
    </style>
    <linearGradient
       id="linear-gradient"
       x1="248.97"
       y1="189.06"
       x2="248.97"
       y2="85.980003"
       gradientUnits="userSpaceOnUse"
       gradientTransform="matrix(0.58023559,0,0,0.58023559,-37.028279,-29.124855)"
       spreadMethod="pad">
      <stop
         offset="0.01"
         stop-color="#3e070b"
         id="stop4"
         style="stop-color:#9c2d05;stop-opacity:1" />
      <stop
         offset="1"
         stop-color="#cd642c"
         id="stop6"
         style="stop-color:#f26912;stop-opacity:1" />
    </linearGradient>
    <linearGradient
       id="linear-gradient-2"
       x1="406.5"
       y1="128.63"
       x2="406.5"
       y2="25.549999"
       gradientTransform="matrix(-0.58023559,0,0,-0.58023559,381.32738,96.165416)"
       gradientUnits="userSpaceOnUse"
       xlink:href="#linear-gradient">
      <stop
         offset="0"
         stop-color="#cd642c"
         id="stop9" />
      <stop
         offset="1"
         stop-color="#3e070b"
         id="stop11" />
    </linearGradient>
    <linearGradient
       inkscape:collect="always"
       xlink:href="#linearGradient78890"
       id="linearGradient78820"
       x1="145.21211"
       y1="80.678925"
       x2="142.76483"
       y2="22.196196"
       gradientUnits="userSpaceOnUse"
       gradientTransform="matrix(2.8785104,0,0,2.8785104,-229.63738,-58.534198)" />
    <linearGradient
       inkscape:collect="always"
       xlink:href="#linear-gradient"
       id="linearGradient79601"
       gradientUnits="userSpaceOnUse"
       gradientTransform="matrix(1.6702142,0,0,1.6702142,-336.22368,-142.37039)"
       x1="248.97"
       y1="189.06"
       x2="248.97"
       y2="85.980003"
       spreadMethod="pad" />
  </defs>
</svg>
