<?xml version="1.0" encoding="UTF-8" standalone="no"?>
<svg
   id="Layer_2"
   data-name="Layer 2"
   viewBox="0 0 212.00001 37.000001"
   version="1.1"
   sodipodi:docname="logoav-horizontal.svg"
   width="212"
   height="37"
   inkscape:version="1.1 (c68e22c387, 2021-05-23)"
   inkscape:export-filename="/home/adiala/Documents/nextjs/av-comunica/next-netlify-avcomunica/public/avcomunica-logo-horizontal.png"
   inkscape:export-xdpi="457.14001"
   inkscape:export-ydpi="457.14001"
   xmlns:inkscape="http://www.inkscape.org/namespaces/inkscape"
   xmlns:sodipodi="http://sodipodi.sourceforge.net/DTD/sodipodi-0.dtd"
   xmlns:xlink="http://www.w3.org/1999/xlink"
   xmlns="http://www.w3.org/2000/svg"
   xmlns:svg="http://www.w3.org/2000/svg">
  <sodipodi:namedview
     id="namedview87"
     pagecolor="#ffffff"
     bordercolor="#666666"
     borderopacity="1.0"
     inkscape:pageshadow="2"
     inkscape:pageopacity="0.0"
     inkscape:pagecheckerboard="0"
     showgrid="false"
     fit-margin-top="0"
     fit-margin-left="0"
     fit-margin-right="0"
     fit-margin-bottom="0"
     inkscape:zoom="4"
     inkscape:cx="90"
     inkscape:cy="9.125"
     inkscape:window-width="1920"
     inkscape:window-height="1016"
     inkscape:window-x="1920"
     inkscape:window-y="27"
     inkscape:window-maximized="1"
     inkscape:current-layer="Layer_2" />
  <defs
     id="defs14">
    <style
       id="style2">
      .cls-1 {
        fill: url(#linear-gradient);
      }

      .cls-2 {
        fill: url(#linear-gradient-2);
      }

      .cls-3 {
        fill: #232323;
      }

      .cls-4 {
        font-size: 13.78px;
        fill: #89371c;
        font-family: Calibri;
        letter-spacing: 0.27em;
      }

      .cls-5 {
        letter-spacing: 0.28em;
      }

      .cls-6 {
        letter-spacing: 0.28em;
      }

      .cls-7 {
        letter-spacing: 0.27em;
      }

      .cls-8 {
        letter-spacing: 0.27em;
      }

      .cls-9 {
        letter-spacing: 0.28em;
      }

      .cls-10 {
        letter-spacing: 0.2em;
      }

      .cls-11 {
        letter-spacing: 0.27em;
      }
    </style>
    <linearGradient
       id="linear-gradient"
       x1="248.97"
       y1="189.06"
       x2="248.97"
       y2="85.980003"
       gradientUnits="userSpaceOnUse"
       gradientTransform="matrix(0.35099472,0,0,0.3427676,-70.602924,-28.865341)"
       spreadMethod="pad">
      <stop
         offset="0.01"
         stop-color="#3e070b"
         id="stop4"
         style="stop-color:#942704;stop-opacity:1" />
      <stop
         offset="1"
         stop-color="#cd642c"
         id="stop6"
         style="stop-color:#f66c13;stop-opacity:1" />
    </linearGradient>
    <linearGradient
       id="linear-gradient-2"
       x1="406.5"
       y1="128.63"
       x2="406.5"
       y2="25.549999"
       gradientTransform="matrix(-0.35099472,0,0,-0.3427676,182.46778,45.148467)"
       gradientUnits="userSpaceOnUse"
       xlink:href="#linear-gradient">
      <stop
         offset="0"
         stop-color="#cd642c"
         id="stop9"
         style="stop-color:#f66c13;stop-opacity:1" />
      <stop
         offset="1"
         stop-color="#3e070b"
         id="stop11"
         style="stop-color:#942704;stop-opacity:1" />
    </linearGradient>
    <linearGradient
       inkscape:collect="always"
       xlink:href="#linear-gradient"
       id="linearGradient1873"
       gradientUnits="userSpaceOnUse"
       gradientTransform="matrix(0.35099472,0,0,0.3427676,-70.602924,-28.865341)"
       x1="248.97"
       y1="189.06"
       x2="248.97"
       y2="85.980003"
       spreadMethod="pad" />
  </defs>
  <g
     id="g1871"
     transform="matrix(0.99541589,0,0,0.99541589,3.936713,2.5259558)">
    <path
       class="cls-1"
       d="M 13.007528,35.938301 H 0.9999988 L 14.137731,2.8440897 c 0,0 0.603711,-1.5493096 2.807958,-1.8440897 h 2.807958 l 12.793757,32.192733 c 0,0 0.544042,2.43365 -2.067359,2.629027 H 28.83388 L 17.324763,6.7824894 7.2617446,32.068455 h 2.6500101 c 0,0 3.2151113,0.04456 3.0957733,3.869846 z"
       id="path16"
       style="fill:url(#linearGradient1873);fill-opacity:1;stroke-width:0.346857"
       inkscape:export-filename="/home/adiala/Documents/nextjs/av-comunica/next-netlify-avcomunica/public/avcomunica-logo-horizontal.png"
       inkscape:export-xdpi="457.14001"
       inkscape:export-ydpi="457.14001" />
    <path
       class="cls-2"
       d="m 43.568638,1.0616982 h 12.01455 L 42.445455,34.15591 c 0,0 -0.603711,1.549309 -2.807957,1.84409 H 36.82954 L 24.042802,3.8072666 c 0,0 -0.540532,-2.4336499 2.070869,-2.6290274 h 1.625106 L 39.258423,30.231221 49.321442,4.9452551 h -2.65703 c 0,0 -3.215112,-0.05827 -3.095774,-3.8835569 z"
       id="path18"
       style="fill:url(#linear-gradient-2);fill-opacity:1;stroke-width:0.346857"
       inkscape:export-filename="/home/adiala/Documents/nextjs/av-comunica/next-netlify-avcomunica/public/avcomunica-logo-horizontal.png"
       inkscape:export-xdpi="457.14001"
       inkscape:export-ydpi="457.14001" />
  </g>
  <g
     id="g8273"
     transform="matrix(0.70131563,0,0,0.68487719,164.82824,86.370309)">
    <g
       id="g56"
       transform="translate(-147.52139,-230.65051)"
       style="fill:#1a1a1a;fill-opacity:1"
       inkscape:export-filename="/home/adiala/Documents/nextjs/av-comunica/next-netlify-avcomunica/public/avcomunica-logo-horizontal.png"
       inkscape:export-xdpi="457.14001"
       inkscape:export-ydpi="457.14001">
      <path
         class="cls-3"
         d="m 172.44,226.32 a 5,5 0 0 1 0.22,0.83 0.48,0.48 0 0 1 -0.12,0.45 0.84,0.84 0 0 1 -0.56,0.19 c -0.28,0 -0.65,0 -1.13,0 h -1.16 a 3.33,3.33 0 0 1 -0.63,-0.09 0.54,0.54 0 0 1 -0.31,-0.18 1.05,1.05 0 0 1 -0.15,-0.3 l -1.27,-3.78 h -7.09 l -1.19,3.67 a 1.2,1.2 0 0 1 -0.16,0.34 0.54,0.54 0 0 1 -0.3,0.22 2.15,2.15 0 0 1 -0.6,0.11 q -0.39,0 -1,0 a 9.6,9.6 0 0 1 -1.05,0 0.79,0.79 0 0 1 -0.52,-0.21 0.61,0.61 0 0 1 -0.11,-0.48 5.69,5.69 0 0 1 0.22,-0.81 l 5.83,-16.65 a 1.36,1.36 0 0 1 0.2,-0.4 0.78,0.78 0 0 1 0.37,-0.23 3.53,3.53 0 0 1 0.71,-0.1 h 1.2 1.37 a 4.28,4.28 0 0 1 0.79,0.1 0.84,0.84 0 0 1 0.41,0.24 1.13,1.13 0 0 1 0.21,0.44 z m -8.67,-13.76 v 0 l -2.67,8 h 5.35 z"
         transform="translate(-154.91,-87.13)"
         id="path20"
         style="fill:#1a1a1a;fill-opacity:1" />
      <path
         class="cls-3"
         d="m 187.21,227.25 a 0.45,0.45 0 0 1 -0.07,0.27 0.56,0.56 0 0 1 -0.25,0.18 1.66,1.66 0 0 1 -0.47,0.1 c -0.2,0 -0.45,0 -0.74,0 -0.29,0 -0.57,0 -0.76,0 a 1.74,1.74 0 0 1 -0.47,-0.1 0.64,0.64 0 0 1 -0.27,-0.18 0.46,0.46 0 0 1 -0.08,-0.27 v -1.44 a 8,8 0 0 1 -2.11,1.67 5.5,5.5 0 0 1 -5,0 4.86,4.86 0 0 1 -1.68,-1.54 6.92,6.92 0 0 1 -0.94,-2.27 12.76,12.76 0 0 1 -0.29,-2.73 11.9,11.9 0 0 1 0.37,-3.11 7,7 0 0 1 1.09,-2.35 4.83,4.83 0 0 1 1.78,-1.49 5.48,5.48 0 0 1 2.45,-0.52 4.37,4.37 0 0 1 2,0.44 6.93,6.93 0 0 1 1.76,1.3 v -7 a 0.5,0.5 0 0 1 0.08,-0.26 0.65,0.65 0 0 1 0.3,-0.2 2.67,2.67 0 0 1 0.56,-0.12 7.31,7.31 0 0 1 0.89,0 7.41,7.41 0 0 1 0.89,0 2.55,2.55 0 0 1 0.55,0.12 0.61,0.61 0 0 1 0.29,0.2 0.43,0.43 0 0 1 0.09,0.26 z m -3.65,-8.64 a 7.94,7.94 0 0 0 -1.51,-1.51 2.51,2.51 0 0 0 -1.51,-0.52 2.09,2.09 0 0 0 -1.23,0.35 2.56,2.56 0 0 0 -0.83,0.95 5,5 0 0 0 -0.47,1.33 7.48,7.48 0 0 0 -0.15,1.5 9.11,9.11 0 0 0 0.13,1.58 5,5 0 0 0 0.43,1.37 2.59,2.59 0 0 0 0.79,1 2,2 0 0 0 1.26,0.37 2.65,2.65 0 0 0 0.74,-0.11 2.74,2.74 0 0 0 0.73,-0.36 5.17,5.17 0 0 0 0.76,-0.64 c 0.26,-0.27 0.55,-0.59 0.86,-1 z"
         transform="translate(-154.91,-87.13)"
         id="path22"
         style="fill:#1a1a1a;fill-opacity:1" />
      <path
         class="cls-3"
         d="m 199.27,215.52 c 0,0.35 0,0.63 0,0.85 a 2.37,2.37 0 0 1 -0.09,0.52 0.56,0.56 0 0 1 -0.15,0.27 0.48,0.48 0 0 1 -0.24,0.07 1,1 0 0 1 -0.27,0 3.17,3.17 0 0 0 -0.33,-0.11 3.26,3.26 0 0 0 -0.4,-0.11 2.28,2.28 0 0 0 -0.48,-0.05 1.66,1.66 0 0 0 -0.61,0.12 2.34,2.34 0 0 0 -0.64,0.39 4.46,4.46 0 0 0 -0.68,0.69 10.27,10.27 0 0 0 -0.77,1.08 v 8.06 a 0.37,0.37 0 0 1 -0.09,0.25 0.48,0.48 0 0 1 -0.3,0.18 2.21,2.21 0 0 1 -0.56,0.11 7.31,7.31 0 0 1 -0.89,0 7.41,7.41 0 0 1 -0.89,0 2.3,2.3 0 0 1 -0.56,-0.11 0.55,0.55 0 0 1 -0.3,-0.18 0.37,0.37 0 0 1 -0.09,-0.25 v -12.99 a 0.44,0.44 0 0 1 0.08,-0.25 0.54,0.54 0 0 1 0.26,-0.18 1.88,1.88 0 0 1 0.49,-0.11 7.37,7.37 0 0 1 0.75,0 7.64,7.64 0 0 1 0.77,0 1.55,1.55 0 0 1 0.48,0.11 0.58,0.58 0 0 1 0.24,0.18 0.43,0.43 0 0 1 0.07,0.25 v 1.61 a 10.26,10.26 0 0 1 1,-1.19 5.08,5.08 0 0 1 0.87,-0.75 2.69,2.69 0 0 1 0.81,-0.38 3.41,3.41 0 0 1 1.23,-0.09 3.79,3.79 0 0 1 0.45,0.07 2,2 0 0 1 0.41,0.12 1,1 0 0 1 0.26,0.13 0.51,0.51 0 0 1 0.11,0.16 1,1 0 0 1 0.07,0.24 3.72,3.72 0 0 1 0,0.46 c -0.02,0.2 -0.01,0.48 -0.01,0.83 z"
         transform="translate(-154.91,-87.13)"
         id="path24"
         style="fill:#1a1a1a;fill-opacity:1" />
      <path
         class="cls-3"
         d="m 205.48,209.93 a 2.06,2.06 0 0 1 -0.45,1.53 3.59,3.59 0 0 1 -3.35,0 2,2 0 0 1 -0.43,-1.46 2.06,2.06 0 0 1 0.45,-1.53 2.41,2.41 0 0 1 1.68,-0.43 2.54,2.54 0 0 1 1.67,0.41 2,2 0 0 1 0.43,1.48 z m -0.27,17.32 a 0.37,0.37 0 0 1 -0.09,0.25 0.55,0.55 0 0 1 -0.3,0.18 2.3,2.3 0 0 1 -0.56,0.11 7.41,7.41 0 0 1 -0.89,0 7.31,7.31 0 0 1 -0.89,0 2.4,2.4 0 0 1 -0.57,-0.11 0.49,0.49 0 0 1 -0.29,-0.18 0.37,0.37 0 0 1 -0.09,-0.25 v -12.91 a 0.38,0.38 0 0 1 0.09,-0.25 0.61,0.61 0 0 1 0.29,-0.19 2.94,2.94 0 0 1 0.57,-0.12 7,7 0 0 1 0.89,-0.05 7.16,7.16 0 0 1 0.89,0.05 2.82,2.82 0 0 1 0.56,0.12 0.71,0.71 0 0 1 0.3,0.19 0.38,0.38 0 0 1 0.09,0.25 z"
         transform="translate(-154.91,-87.13)"
         id="path26"
         style="fill:#1a1a1a;fill-opacity:1" />
      <path
         class="cls-3"
         d="m 220,227.29 a 0.38,0.38 0 0 1 -0.15,0.32 0.9,0.9 0 0 1 -0.46,0.17 6.65,6.65 0 0 1 -0.92,0.05 7,7 0 0 1 -1,-0.05 0.75,0.75 0 0 1 -0.42,-0.17 0.43,0.43 0 0 1 -0.13,-0.32 v -1 a 5.84,5.84 0 0 1 -1.83,1.34 5.29,5.29 0 0 1 -2.28,0.48 6.44,6.44 0 0 1 -1.91,-0.27 4.41,4.41 0 0 1 -1.5,-0.8 3.56,3.56 0 0 1 -1,-1.31 4.33,4.33 0 0 1 -0.35,-1.83 4.05,4.05 0 0 1 0.44,-2 3.59,3.59 0 0 1 1.33,-1.38 6.83,6.83 0 0 1 2.2,-0.81 16.06,16.06 0 0 1 3.05,-0.26 h 1.27 v -0.78 a 4.23,4.23 0 0 0 -0.13,-1.07 1.63,1.63 0 0 0 -1.17,-1.21 3.9,3.9 0 0 0 -1.17,-0.14 5.9,5.9 0 0 0 -1.64,0.2 11.06,11.06 0 0 0 -1.28,0.45 10.32,10.32 0 0 0 -0.93,0.45 1.39,1.39 0 0 1 -0.6,0.2 0.45,0.45 0 0 1 -0.29,-0.1 0.71,0.71 0 0 1 -0.2,-0.29 1.81,1.81 0 0 1 -0.12,-0.46 3.86,3.86 0 0 1 -0.05,-0.61 3.18,3.18 0 0 1 0.07,-0.71 1.14,1.14 0 0 1 0.28,-0.47 2.87,2.87 0 0 1 0.72,-0.47 8,8 0 0 1 1.17,-0.44 11.79,11.79 0 0 1 1.5,-0.36 10.18,10.18 0 0 1 1.67,-0.13 10.47,10.47 0 0 1 2.62,0.29 4.53,4.53 0 0 1 1.79,0.92 3.56,3.56 0 0 1 1,1.59 7.42,7.42 0 0 1 0.32,2.3 z m -3.6,-5.54 H 215 a 8,8 0 0 0 -1.51,0.13 2.82,2.82 0 0 0 -1,0.4 1.51,1.51 0 0 0 -0.58,0.63 1.89,1.89 0 0 0 -0.18,0.84 1.64,1.64 0 0 0 0.51,1.28 2.09,2.09 0 0 0 1.44,0.46 2.68,2.68 0 0 0 1.42,-0.39 5.83,5.83 0 0 0 1.33,-1.14 z"
         transform="translate(-154.91,-87.13)"
         id="path28"
         style="fill:#1a1a1a;fill-opacity:1" />
      <path
         class="cls-3"
         d="m 236.06,227.25 a 0.37,0.37 0 0 1 -0.09,0.25 0.56,0.56 0 0 1 -0.29,0.18 2.3,2.3 0 0 1 -0.56,0.11 7.52,7.52 0 0 1 -0.89,0 7.31,7.31 0 0 1 -0.89,0 2.3,2.3 0 0 1 -0.57,-0.11 0.56,0.56 0 0 1 -0.29,-0.18 0.37,0.37 0 0 1 -0.09,-0.25 v -7.38 a 6.4,6.4 0 0 0 -0.13,-1.48 2.88,2.88 0 0 0 -0.41,-0.92 1.76,1.76 0 0 0 -0.67,-0.6 2.13,2.13 0 0 0 -1,-0.21 2.45,2.45 0 0 0 -1.42,0.51 7.64,7.64 0 0 0 -1.49,1.48 v 8.6 a 0.37,0.37 0 0 1 -0.09,0.25 0.48,0.48 0 0 1 -0.3,0.18 2.21,2.21 0 0 1 -0.56,0.11 7.31,7.31 0 0 1 -0.89,0 7.41,7.41 0 0 1 -0.89,0 2.3,2.3 0 0 1 -0.56,-0.11 0.55,0.55 0 0 1 -0.3,-0.18 0.37,0.37 0 0 1 -0.09,-0.25 v -12.94 a 0.44,0.44 0 0 1 0.08,-0.25 0.54,0.54 0 0 1 0.26,-0.18 1.88,1.88 0 0 1 0.49,-0.11 7.37,7.37 0 0 1 0.75,0 7.64,7.64 0 0 1 0.77,0 1.55,1.55 0 0 1 0.48,0.11 0.58,0.58 0 0 1 0.24,0.18 0.43,0.43 0 0 1 0.07,0.25 v 1.5 a 7.93,7.93 0 0 1 2.2,-1.74 4.93,4.93 0 0 1 2.33,-0.58 5.2,5.2 0 0 1 2.24,0.43 4,4 0 0 1 1.5,1.18 4.94,4.94 0 0 1 0.81,1.75 10.44,10.44 0 0 1 0.25,2.41 z"
         transform="translate(-154.91,-87.13)"
         id="path30"
         style="fill:#1a1a1a;fill-opacity:1" />
      <path
         class="cls-3"
         d="m 250.75,227.29 a 0.4,0.4 0 0 1 -0.14,0.32 0.94,0.94 0 0 1 -0.46,0.17 6.93,6.93 0 0 1 -0.93,0.05 6.74,6.74 0 0 1 -0.95,-0.05 0.79,0.79 0 0 1 -0.43,-0.17 0.42,0.42 0 0 1 -0.12,-0.32 v -1 a 6.08,6.08 0 0 1 -1.83,1.34 5.37,5.37 0 0 1 -2.29,0.48 6.37,6.37 0 0 1 -1.9,-0.27 4.45,4.45 0 0 1 -1.51,-0.8 3.56,3.56 0 0 1 -1,-1.31 4.49,4.49 0 0 1 -0.35,-1.83 4.17,4.17 0 0 1 0.44,-2 3.59,3.59 0 0 1 1.33,-1.38 6.83,6.83 0 0 1 2.2,-0.81 16.06,16.06 0 0 1 3,-0.26 h 1.27 v -0.78 a 3.82,3.82 0 0 0 -0.13,-1.07 1.73,1.73 0 0 0 -0.4,-0.76 1.79,1.79 0 0 0 -0.76,-0.45 4,4 0 0 0 -1.18,-0.14 5.9,5.9 0 0 0 -1.64,0.2 11.06,11.06 0 0 0 -1.28,0.45 10,10 0 0 0 -0.92,0.45 1.43,1.43 0 0 1 -0.61,0.2 0.4,0.4 0 0 1 -0.28,-0.1 0.73,0.73 0 0 1 -0.21,-0.29 2.35,2.35 0 0 1 -0.12,-0.46 3.86,3.86 0 0 1 -0.05,-0.61 2.62,2.62 0 0 1 0.08,-0.71 1.11,1.11 0 0 1 0.27,-0.47 2.87,2.87 0 0 1 0.72,-0.47 7.71,7.71 0 0 1 1.2,-0.47 11.23,11.23 0 0 1 1.49,-0.36 10.18,10.18 0 0 1 1.67,-0.13 10.36,10.36 0 0 1 2.62,0.29 4.46,4.46 0 0 1 1.79,0.92 3.48,3.48 0 0 1 1,1.59 7.14,7.14 0 0 1 0.32,2.3 z m -3.6,-5.54 h -1.4 a 8.12,8.12 0 0 0 -1.52,0.13 2.82,2.82 0 0 0 -1,0.4 1.58,1.58 0 0 0 -0.58,0.63 1.89,1.89 0 0 0 -0.18,0.84 1.61,1.61 0 0 0 0.53,1.25 2.06,2.06 0 0 0 1.44,0.46 2.71,2.71 0 0 0 1.42,-0.39 6,6 0 0 0 1.32,-1.14 z"
         transform="translate(-154.91,-87.13)"
         id="path32"
         style="fill:#1a1a1a;fill-opacity:1" />
      <path
         class="cls-3"
         d="m 270.79,227.08 a 1.18,1.18 0 0 1 -0.19,0.39 0.72,0.72 0 0 1 -0.38,0.24 3.53,3.53 0 0 1 -0.71,0.1 h -1.19 -1 a 7,7 0 0 1 -0.71,0 2.29,2.29 0 0 1 -0.48,-0.09 1.05,1.05 0 0 1 -0.3,-0.15 0.43,0.43 0 0 1 -0.19,-0.21 1.31,1.31 0 0 1 -0.13,-0.31 L 259.9,210.4 a 5.88,5.88 0 0 1 -0.21,-0.83 0.51,0.51 0 0 1 0.15,-0.46 1.11,1.11 0 0 1 0.62,-0.18 c 0.29,0 0.7,0 1.22,0 0.52,0 0.8,0 1.06,0 a 2.36,2.36 0 0 1 0.58,0.1 0.46,0.46 0 0 1 0.28,0.22 1.54,1.54 0 0 1 0.16,0.36 l 4.59,14.47 v 0 l 4.51,-14.4 a 2,2 0 0 1 0.14,-0.4 0.62,0.62 0 0 1 0.3,-0.24 2.48,2.48 0 0 1 0.61,-0.11 q 0.39,0 1.08,0 a 9.4,9.4 0 0 1 1,0 0.76,0.76 0 0 1 0.51,0.21 0.55,0.55 0 0 1 0.09,0.47 4.62,4.62 0 0 1 -0.23,0.82 z"
         transform="translate(-154.91,-87.13)"
         id="path34"
         style="fill:#1a1a1a;fill-opacity:1" />
      <path
         class="cls-3"
         d="m 288.29,227.29 a 0.38,0.38 0 0 1 -0.15,0.32 0.9,0.9 0 0 1 -0.46,0.17 6.65,6.65 0 0 1 -0.92,0.05 7,7 0 0 1 -1,-0.05 0.75,0.75 0 0 1 -0.42,-0.17 0.39,0.39 0 0 1 -0.13,-0.32 v -1 a 5.84,5.84 0 0 1 -1.83,1.34 5.29,5.29 0 0 1 -2.28,0.48 6.44,6.44 0 0 1 -1.91,-0.27 4.41,4.41 0 0 1 -1.5,-0.8 3.56,3.56 0 0 1 -1,-1.31 4.33,4.33 0 0 1 -0.35,-1.83 4.05,4.05 0 0 1 0.44,-2 3.59,3.59 0 0 1 1.33,-1.38 6.83,6.83 0 0 1 2.2,-0.81 16.06,16.06 0 0 1 3.05,-0.26 h 1.26 v -0.78 a 4.26,4.26 0 0 0 -0.12,-1.07 1.63,1.63 0 0 0 -1.17,-1.21 3.9,3.9 0 0 0 -1.17,-0.14 5.9,5.9 0 0 0 -1.64,0.2 10.43,10.43 0 0 0 -1.28,0.45 10.32,10.32 0 0 0 -0.93,0.45 1.43,1.43 0 0 1 -0.6,0.2 0.45,0.45 0 0 1 -0.29,-0.1 0.71,0.71 0 0 1 -0.2,-0.29 1.79,1.79 0 0 1 -0.13,-0.46 5.68,5.68 0 0 1 0,-0.61 2.68,2.68 0 0 1 0.07,-0.71 1,1 0 0 1 0.28,-0.47 2.87,2.87 0 0 1 0.72,-0.47 8,8 0 0 1 1.19,-0.47 11.79,11.79 0 0 1 1.5,-0.36 10.18,10.18 0 0 1 1.67,-0.13 10.47,10.47 0 0 1 2.62,0.29 4.53,4.53 0 0 1 1.79,0.92 3.65,3.65 0 0 1 1,1.59 7.42,7.42 0 0 1 0.32,2.3 z m -3.61,-5.54 h -1.4 a 8,8 0 0 0 -1.51,0.13 3,3 0 0 0 -1,0.4 1.56,1.56 0 0 0 -0.57,0.63 1.89,1.89 0 0 0 -0.18,0.84 1.64,1.64 0 0 0 0.51,1.28 2.09,2.09 0 0 0 1.44,0.46 2.68,2.68 0 0 0 1.42,-0.39 5.59,5.59 0 0 0 1.32,-1.14 z"
         transform="translate(-154.91,-87.13)"
         id="path36"
         style="fill:#1a1a1a;fill-opacity:1" />
      <path
         class="cls-3"
         d="m 301.12,223.59 a 4.31,4.31 0 0 1 -0.42,1.95 4,4 0 0 1 -1.17,1.41 5.54,5.54 0 0 1 -1.8,0.84 8.45,8.45 0 0 1 -2.25,0.29 8.9,8.9 0 0 1 -1.39,-0.11 10,10 0 0 1 -1.19,-0.28 5.46,5.46 0 0 1 -0.87,-0.34 2.05,2.05 0 0 1 -0.52,-0.32 1.08,1.08 0 0 1 -0.24,-0.48 3.91,3.91 0 0 1 -0.09,-1 5.94,5.94 0 0 1 0,-0.67 1.68,1.68 0 0 1 0.09,-0.41 0.31,0.31 0 0 1 0.14,-0.2 0.38,0.38 0 0 1 0.22,-0.05 1.1,1.1 0 0 1 0.48,0.18 c 0.2,0.12 0.46,0.25 0.78,0.4 a 8.25,8.25 0 0 0 1.08,0.4 4.76,4.76 0 0 0 1.41,0.19 3.33,3.33 0 0 0 0.88,-0.1 2.22,2.22 0 0 0 0.74,-0.29 1.17,1.17 0 0 0 0.43,-0.48 1.54,1.54 0 0 0 0.14,-0.67 1.09,1.09 0 0 0 -0.27,-0.74 2.53,2.53 0 0 0 -0.71,-0.55 8.76,8.76 0 0 0 -1,-0.43 l -1.15,-0.45 a 8.9,8.9 0 0 1 -1.16,-0.57 4.21,4.21 0 0 1 -1,-0.78 3.48,3.48 0 0 1 -0.72,-1.12 4,4 0 0 1 -0.27,-1.56 3.89,3.89 0 0 1 0.37,-1.71 3.62,3.62 0 0 1 1.05,-1.32 4.79,4.79 0 0 1 1.67,-0.86 7.57,7.57 0 0 1 2.21,-0.3 9.26,9.26 0 0 1 1.19,0.08 8.58,8.58 0 0 1 1,0.22 5.44,5.44 0 0 1 0.79,0.28 3.73,3.73 0 0 1 0.46,0.26 1,1 0 0 1 0.2,0.22 0.66,0.66 0 0 1 0.08,0.26 c 0,0.11 0,0.23 0.06,0.38 0.06,0.15 0,0.34 0,0.56 0,0.22 0,0.47 0,0.64 a 1.66,1.66 0 0 1 -0.08,0.39 0.29,0.29 0 0 1 -0.14,0.19 0.32,0.32 0 0 1 -0.2,0.06 1.09,1.09 0 0 1 -0.41,-0.16 5.8,5.8 0 0 0 -0.69,-0.32 7.64,7.64 0 0 0 -1,-0.33 4.81,4.81 0 0 0 -1.25,-0.15 3.13,3.13 0 0 0 -0.86,0.1 1.53,1.53 0 0 0 -0.6,0.29 1.22,1.22 0 0 0 -0.35,0.44 1.26,1.26 0 0 0 -0.12,0.55 1,1 0 0 0 0.28,0.75 2.66,2.66 0 0 0 0.73,0.54 7.81,7.81 0 0 0 1,0.43 c 0.38,0.14 0.77,0.28 1.16,0.44 a 10.45,10.45 0 0 1 1.17,0.56 4.47,4.47 0 0 1 1,0.79 3.46,3.46 0 0 1 0.73,1.11 3.93,3.93 0 0 1 0.38,1.55 z"
         transform="translate(-154.91,-87.13)"
         id="path38"
         style="fill:#1a1a1a;fill-opacity:1" />
      <path
         class="cls-3"
         d="m 313.73,225.19 c 0,0.25 0,0.46 0,0.63 0,0.17 0,0.31 -0.06,0.43 a 1.86,1.86 0 0 1 -0.09,0.28 1.17,1.17 0 0 1 -0.23,0.28 2.89,2.89 0 0 1 -0.6,0.4 5.33,5.33 0 0 1 -1,0.43 7.67,7.67 0 0 1 -1.17,0.31 8.08,8.08 0 0 1 -1.31,0.11 7.1,7.1 0 0 1 -2.66,-0.46 5,5 0 0 1 -1.95,-1.37 6,6 0 0 1 -1.19,-2.21 11.58,11.58 0 0 1 0.09,-6.35 6.39,6.39 0 0 1 1.36,-2.34 5.46,5.46 0 0 1 2.08,-1.33 7.45,7.45 0 0 1 2.63,-0.45 7.34,7.34 0 0 1 1.15,0.1 6.72,6.72 0 0 1 1,0.28 5,5 0 0 1 0.87,0.39 2.41,2.41 0 0 1 0.55,0.38 1.27,1.27 0 0 1 0.23,0.27 1.11,1.11 0 0 1 0.1,0.28 c 0,0.11 0,0.26 0.06,0.43 0.06,0.17 0,0.37 0,0.61 a 3.21,3.21 0 0 1 -0.15,1.18 c -0.09,0.23 -0.22,0.34 -0.38,0.34 a 0.85,0.85 0 0 1 -0.52,-0.2 l -0.66,-0.45 a 5.38,5.38 0 0 0 -0.9,-0.45 3.62,3.62 0 0 0 -1.26,-0.2 2.51,2.51 0 0 0 -2.19,1.09 5.71,5.71 0 0 0 -0.76,3.22 8.39,8.39 0 0 0 0.19,1.84 4.07,4.07 0 0 0 0.56,1.33 2.36,2.36 0 0 0 0.94,0.81 3,3 0 0 0 1.3,0.27 3.41,3.41 0 0 0 1.31,-0.23 5.73,5.73 0 0 0 1,-0.5 8.1,8.1 0 0 0 0.68,-0.5 0.81,0.81 0 0 1 0.47,-0.22 0.32,0.32 0 0 1 0.22,0.07 0.56,0.56 0 0 1 0.14,0.27 3.75,3.75 0 0 1 0.08,0.5 q 0.07,0.25 0.07,0.73 z"
         transform="translate(-154.91,-87.13)"
         id="path40"
         style="fill:#1a1a1a;fill-opacity:1" />
      <path
         class="cls-3"
         d="m 329.4,220.65 a 9.62,9.62 0 0 1 -0.44,3 6.38,6.38 0 0 1 -1.32,2.35 6.05,6.05 0 0 1 -2.24,1.52 8.36,8.36 0 0 1 -3.14,0.54 8.66,8.66 0 0 1 -3,-0.48 5.63,5.63 0 0 1 -2.13,-1.39 5.74,5.74 0 0 1 -1.25,-2.25 10.52,10.52 0 0 1 -0.41,-3.05 9.92,9.92 0 0 1 0.44,-3 6.39,6.39 0 0 1 1.34,-2.35 6,6 0 0 1 2.23,-1.52 8.51,8.51 0 0 1 3.13,-0.53 8.65,8.65 0 0 1 3,0.47 5.21,5.21 0 0 1 2.12,1.38 5.74,5.74 0 0 1 1.25,2.25 10.21,10.21 0 0 1 0.42,3.06 z m -3.78,0.15 a 9.74,9.74 0 0 0 -0.15,-1.77 4.24,4.24 0 0 0 -0.52,-1.4 2.6,2.6 0 0 0 -1,-0.92 3,3 0 0 0 -1.53,-0.34 3.23,3.23 0 0 0 -1.43,0.3 2.61,2.61 0 0 0 -1,0.87 4,4 0 0 0 -0.59,1.38 7.27,7.27 0 0 0 -0.2,1.83 8.72,8.72 0 0 0 0.16,1.76 4.29,4.29 0 0 0 0.52,1.4 2.39,2.39 0 0 0 1,0.92 3.17,3.17 0 0 0 1.52,0.33 3.25,3.25 0 0 0 1.44,-0.3 2.47,2.47 0 0 0 1,-0.86 3.88,3.88 0 0 0 0.58,-1.37 7.86,7.86 0 0 0 0.2,-1.83 z"
         transform="translate(-154.91,-87.13)"
         id="path42"
         style="fill:#1a1a1a;fill-opacity:1" />
      <path
         class="cls-3"
         d="m 344.74,227.25 a 0.37,0.37 0 0 1 -0.09,0.25 0.52,0.52 0 0 1 -0.29,0.18 2.21,2.21 0 0 1 -0.56,0.11 9.92,9.92 0 0 1 -1.78,0 2.12,2.12 0 0 1 -0.56,-0.11 0.55,0.55 0 0 1 -0.3,-0.18 0.41,0.41 0 0 1 -0.08,-0.25 v -7.38 a 6.32,6.32 0 0 0 -0.14,-1.48 3.12,3.12 0 0 0 -0.4,-0.92 1.78,1.78 0 0 0 -0.68,-0.6 2.13,2.13 0 0 0 -1,-0.21 2.45,2.45 0 0 0 -1.42,0.51 7.64,7.64 0 0 0 -1.49,1.48 v 8.6 a 0.41,0.41 0 0 1 -0.08,0.25 0.55,0.55 0 0 1 -0.3,0.18 2.3,2.3 0 0 1 -0.57,0.11 7.31,7.31 0 0 1 -0.89,0 7.41,7.41 0 0 1 -0.89,0 2.3,2.3 0 0 1 -0.56,-0.11 0.55,0.55 0 0 1 -0.3,-0.18 0.36,0.36 0 0 1 -0.08,-0.25 v -12.94 a 0.43,0.43 0 0 1 0.07,-0.25 0.54,0.54 0 0 1 0.26,-0.18 1.88,1.88 0 0 1 0.49,-0.11 7.37,7.37 0 0 1 0.75,0 c 0.31,0 0.57,0 0.78,0 a 1.55,1.55 0 0 1 0.47,0.11 0.58,0.58 0 0 1 0.24,0.18 0.43,0.43 0 0 1 0.07,0.25 v 1.5 a 8.07,8.07 0 0 1 2.2,-1.74 4.93,4.93 0 0 1 2.33,-0.58 5.2,5.2 0 0 1 2.24,0.43 3.92,3.92 0 0 1 1.47,1.18 4.62,4.62 0 0 1 0.81,1.75 9.91,9.91 0 0 1 0.25,2.41 z"
         transform="translate(-154.91,-87.13)"
         id="path44"
         style="fill:#1a1a1a;fill-opacity:1" />
      <path
         class="cls-3"
         d="m 358.2,225.19 a 5.53,5.53 0 0 1 0,0.63 2.34,2.34 0 0 1 -0.06,0.43 1.2,1.2 0 0 1 -0.08,0.28 1.17,1.17 0 0 1 -0.23,0.28 3.58,3.58 0 0 1 -0.6,0.4 5.33,5.33 0 0 1 -1,0.43 7.51,7.51 0 0 1 -1.18,0.31 7.86,7.86 0 0 1 -1.3,0.11 7.19,7.19 0 0 1 -2.67,-0.46 5,5 0 0 1 -1.94,-1.37 5.88,5.88 0 0 1 -1.14,-2.23 11.58,11.58 0 0 1 0.09,-6.35 6.39,6.39 0 0 1 1.36,-2.34 5.39,5.39 0 0 1 2.07,-1.38 7.41,7.41 0 0 1 2.63,-0.45 7.11,7.11 0 0 1 1.14,0.1 6.18,6.18 0 0 1 1.05,0.28 4.76,4.76 0 0 1 0.88,0.39 2.41,2.41 0 0 1 0.55,0.38 1.18,1.18 0 0 1 0.22,0.27 0.82,0.82 0 0 1 0.11,0.28 3.67,3.67 0 0 1 0.05,0.43 5.28,5.28 0 0 1 0,0.61 3.21,3.21 0 0 1 -0.15,1.18 c -0.1,0.23 -0.22,0.34 -0.38,0.34 a 0.85,0.85 0 0 1 -0.52,-0.2 l -0.66,-0.45 a 5.51,5.51 0 0 0 -0.91,-0.45 3.56,3.56 0 0 0 -1.25,-0.2 2.51,2.51 0 0 0 -2.19,1.09 5.63,5.63 0 0 0 -0.76,3.22 7.83,7.83 0 0 0 0.19,1.84 3.87,3.87 0 0 0 0.56,1.33 2.36,2.36 0 0 0 0.94,0.81 3,3 0 0 0 1.3,0.27 3.45,3.45 0 0 0 1.31,-0.23 5.61,5.61 0 0 0 0.95,-0.5 7,7 0 0 0 0.69,-0.5 0.81,0.81 0 0 1 0.47,-0.22 0.32,0.32 0 0 1 0.22,0.07 0.56,0.56 0 0 1 0.14,0.27 3.75,3.75 0 0 1 0.08,0.5 c 0,0.22 0.02,0.48 0.02,0.8 z"
         transform="translate(-154.91,-87.13)"
         id="path46"
         style="fill:#1a1a1a;fill-opacity:1" />
      <path
         class="cls-3"
         d="m 372.88,220.4 a 1.4,1.4 0 0 1 -0.3,1 1.1,1.1 0 0 1 -0.83,0.32 h -7.92 a 5,5 0 0 0 0.2,1.5 3,3 0 0 0 0.62,1.15 2.76,2.76 0 0 0 1.11,0.71 4.66,4.66 0 0 0 1.63,0.25 9.29,9.29 0 0 0 1.69,-0.14 10.73,10.73 0 0 0 1.26,-0.3 c 0.36,-0.11 0.65,-0.21 0.89,-0.31 a 1.62,1.62 0 0 1 0.57,-0.13 0.4,0.4 0 0 1 0.22,0.05 0.39,0.39 0 0 1 0.14,0.18 1.07,1.07 0 0 1 0.08,0.37 5.26,5.26 0 0 1 0,0.6 c 0,0.21 0,0.39 0,0.54 0,0.15 0,0.28 0,0.39 a 1.07,1.07 0 0 1 -0.09,0.27 1,1 0 0 1 -0.16,0.21 1.75,1.75 0 0 1 -0.51,0.27 8.23,8.23 0 0 1 -1.08,0.34 14.56,14.56 0 0 1 -1.51,0.29 11.41,11.41 0 0 1 -1.81,0.13 9.64,9.64 0 0 1 -3,-0.44 5.39,5.39 0 0 1 -2.18,-1.32 5.55,5.55 0 0 1 -1.31,-2.23 10.64,10.64 0 0 1 -0.43,-3.16 10,10 0 0 1 0.45,-3.11 6.48,6.48 0 0 1 1.32,-2.35 5.57,5.57 0 0 1 2.07,-1.48 8.19,8.19 0 0 1 5.58,0 5,5 0 0 1 1.9,1.32 5.46,5.46 0 0 1 1.1,2 8.82,8.82 0 0 1 0.35,2.52 z m -3.56,-1 a 3.79,3.79 0 0 0 -0.62,-2.41 2.41,2.41 0 0 0 -2.06,-0.88 2.7,2.7 0 0 0 -1.21,0.26 2.37,2.37 0 0 0 -0.86,0.7 3.24,3.24 0 0 0 -0.53,1.05 5.27,5.27 0 0 0 -0.21,1.28 z"
         transform="translate(-154.91,-87.13)"
         id="path48"
         style="fill:#1a1a1a;fill-opacity:1" />
      <path
         class="cls-3"
         d="m 379.58,227.25 a 0.37,0.37 0 0 1 -0.09,0.25 0.55,0.55 0 0 1 -0.3,0.18 2.3,2.3 0 0 1 -0.56,0.11 7.41,7.41 0 0 1 -0.89,0 7.31,7.31 0 0 1 -0.89,0 2.4,2.4 0 0 1 -0.57,-0.11 0.49,0.49 0 0 1 -0.29,-0.18 0.37,0.37 0 0 1 -0.09,-0.25 v -19.07 a 0.39,0.39 0 0 1 0.09,-0.26 0.55,0.55 0 0 1 0.29,-0.2 2.94,2.94 0 0 1 0.57,-0.12 7,7 0 0 1 0.89,0 7.16,7.16 0 0 1 0.89,0 2.82,2.82 0 0 1 0.56,0.12 0.63,0.63 0 0 1 0.3,0.2 0.39,0.39 0 0 1 0.09,0.26 z"
         transform="translate(-154.91,-87.13)"
         id="path50"
         style="fill:#1a1a1a;fill-opacity:1" />
      <path
         class="cls-3"
         d="m 396.4,220.65 a 9.62,9.62 0 0 1 -0.44,3 6.38,6.38 0 0 1 -1.32,2.35 6.05,6.05 0 0 1 -2.24,1.52 8.34,8.34 0 0 1 -3.13,0.54 8.68,8.68 0 0 1 -3,-0.48 5.63,5.63 0 0 1 -2.13,-1.39 5.74,5.74 0 0 1 -1.25,-2.25 10.52,10.52 0 0 1 -0.41,-3.05 9.62,9.62 0 0 1 0.45,-3 6.24,6.24 0 0 1 1.33,-2.35 6,6 0 0 1 2.23,-1.52 8.51,8.51 0 0 1 3.13,-0.53 8.65,8.65 0 0 1 3,0.47 5.25,5.25 0 0 1 2.13,1.38 5.72,5.72 0 0 1 1.24,2.25 10.21,10.21 0 0 1 0.41,3.06 z m -3.78,0.15 a 9.74,9.74 0 0 0 -0.15,-1.77 4.24,4.24 0 0 0 -0.52,-1.4 2.6,2.6 0 0 0 -1,-0.92 3,3 0 0 0 -1.52,-0.34 3.25,3.25 0 0 0 -1.44,0.3 2.61,2.61 0 0 0 -1,0.87 4.14,4.14 0 0 0 -0.59,1.38 7.77,7.77 0 0 0 -0.2,1.83 8.72,8.72 0 0 0 0.16,1.76 4.29,4.29 0 0 0 0.52,1.4 2.39,2.39 0 0 0 1,0.92 3.17,3.17 0 0 0 1.52,0.33 3.25,3.25 0 0 0 1.44,-0.3 2.47,2.47 0 0 0 1,-0.86 3.88,3.88 0 0 0 0.58,-1.37 7.86,7.86 0 0 0 0.2,-1.83 z"
         transform="translate(-154.91,-87.13)"
         id="path52"
         style="fill:#1a1a1a;fill-opacity:1" />
      <path
         class="cls-3"
         d="m 408.47,223.59 a 4.44,4.44 0 0 1 -0.41,1.95 3.91,3.91 0 0 1 -1.18,1.41 5.48,5.48 0 0 1 -1.79,0.84 8.5,8.5 0 0 1 -2.25,0.29 9,9 0 0 1 -1.4,-0.11 9.36,9.36 0 0 1 -1.18,-0.28 5.25,5.25 0 0 1 -0.88,-0.34 2.16,2.16 0 0 1 -0.51,-0.32 1.09,1.09 0 0 1 -0.25,-0.48 3.91,3.91 0 0 1 -0.09,-1 5.94,5.94 0 0 1 0,-0.67 1.68,1.68 0 0 1 0.09,-0.41 0.36,0.36 0 0 1 0.15,-0.2 0.35,0.35 0 0 1 0.21,-0.05 1.1,1.1 0 0 1 0.48,0.18 c 0.21,0.12 0.47,0.25 0.78,0.4 a 7.91,7.91 0 0 0 1.09,0.4 4.65,4.65 0 0 0 1.4,0.19 3.41,3.41 0 0 0 0.89,-0.1 2.16,2.16 0 0 0 0.67,-0.29 1.17,1.17 0 0 0 0.43,-0.48 1.41,1.41 0 0 0 0.15,-0.67 1.09,1.09 0 0 0 -0.27,-0.74 2.44,2.44 0 0 0 -0.72,-0.55 8.07,8.07 0 0 0 -1,-0.43 l -1.15,-0.45 a 8.78,8.78 0 0 1 -1.15,-0.57 4.26,4.26 0 0 1 -1,-0.78 3.46,3.46 0 0 1 -0.71,-1.12 4.42,4.42 0 0 1 0.13,-3.21 3.62,3.62 0 0 1 1,-1.32 5,5 0 0 1 1.67,-0.86 7.62,7.62 0 0 1 2.21,-0.3 9.14,9.14 0 0 1 1.19,0.08 8.77,8.77 0 0 1 1.05,0.22 5.27,5.27 0 0 1 0.78,0.28 3.09,3.09 0 0 1 0.46,0.26 0.78,0.78 0 0 1 0.2,0.22 0.88,0.88 0 0 1 0.09,0.26 3.22,3.22 0 0 1 0.05,0.38 c 0,0.15 0,0.34 0,0.56 0,0.22 0,0.47 0,0.64 a 1.71,1.71 0 0 1 -0.07,0.39 0.33,0.33 0 0 1 -0.14,0.19 0.37,0.37 0 0 1 -0.21,0.06 1.07,1.07 0 0 1 -0.4,-0.16 6.93,6.93 0 0 0 -0.7,-0.32 7.64,7.64 0 0 0 -1,-0.33 4.76,4.76 0 0 0 -1.25,-0.15 3.13,3.13 0 0 0 -0.86,0.1 1.68,1.68 0 0 0 -0.6,0.29 1.34,1.34 0 0 0 -0.35,0.44 1.26,1.26 0 0 0 -0.12,0.55 1.09,1.09 0 0 0 0.28,0.75 2.83,2.83 0 0 0 0.73,0.54 8.42,8.42 0 0 0 1,0.43 l 1.17,0.44 a 12.44,12.44 0 0 1 1.17,0.56 4.64,4.64 0 0 1 1,0.79 3.3,3.3 0 0 1 0.73,1.11 3.75,3.75 0 0 1 0.39,1.49 z"
         transform="translate(-154.91,-87.13)"
         id="path54"
         style="fill:#1a1a1a;fill-opacity:1" />
    </g>
    <text
       class="cls-4"
       transform="scale(1.0049876,0.99503716)"
       id="text82"
       y="-74.429893"
       style="fill:#942704;fill-opacity:1;stroke-width:1.00499"
       x="-146.78926"
       inkscape:export-filename="/home/adiala/Documents/nextjs/av-comunica/next-netlify-avcomunica/public/avcomunica-logo-horizontal.png"
       inkscape:export-xdpi="457.14001"
       inkscape:export-ydpi="457.14001">C<tspan
   class="cls-5"
   x="-135.60376"
   y="-74.429893"
   id="tspan58"
   style="fill:#942704;fill-opacity:1;stroke-width:1.00499">OMUNIC</tspan><tspan
   class="cls-6"
   x="-62.38036"
   y="-74.429893"
   id="tspan60"
   style="fill:#942704;fill-opacity:1;stroke-width:1.00499">A</tspan><tspan
   class="cls-5"
   x="-50.551655"
   y="-74.429893"
   id="tspan62"
   style="fill:#942704;fill-opacity:1;stroke-width:1.00499">Ç</tspan><tspan
   class="cls-7"
   x="-39.245548"
   y="-74.429893"
   id="tspan64"
   style="fill:#942704;fill-opacity:1;stroke-width:1.00499">Ã</tspan><tspan
   class="cls-5"
   x="-27.477131"
   y="-74.429893"
   id="tspan66"
   style="fill:#942704;fill-opacity:1;stroke-width:1.00499">O</tspan><tspan
   class="cls-8"
   x="-7.3371921"
   y="-74.429893"
   id="tspan68"
   style="fill:#942704;fill-opacity:1;stroke-width:1.00499">E</tspan><tspan
   class="cls-9"
   x="3.2151766"
   y="-74.429893"
   id="tspan70"
   style="fill:#942704;fill-opacity:1;stroke-width:1.00499">S</tspan><tspan
   class="cls-5"
   x="13.395703"
   y="-74.429893"
   id="tspan72"
   style="fill:#942704;fill-opacity:1;stroke-width:1.00499">TR</tspan><tspan
   class="cls-10"
   x="35.505428"
   y="-74.429893"
   id="tspan74"
   style="fill:#942704;fill-opacity:1;stroke-width:1.00499">A</tspan><tspan
   class="cls-5"
   x="46.359295"
   y="-74.429893"
   id="tspan76"
   style="fill:#942704;fill-opacity:1;stroke-width:1.00499">T</tspan><tspan
   class="cls-11"
   x="57.022213"
   y="-74.429893"
   id="tspan78"
   style="fill:#942704;fill-opacity:1;stroke-width:1.00499">É</tspan><tspan
   class="cls-5"
   x="67.544434"
   y="-74.429893"
   id="tspan80"
   style="fill:#942704;fill-opacity:1;stroke-width:1.00499">GICA</tspan></text>
  </g>
</svg>
