<?xml version="1.0" encoding="UTF-8" standalone="no"?>
<svg
   id="Layer_2"
   data-name="Layer 2"
   viewBox="0 0 1002 172.00001"
   version="1.1"
   sodipodi:docname="logoav-horizontal.svg.2021_08_09_16_44_16.0.svg"
   width="1002"
   height="172"
   inkscape:version="1.1 (c68e22c387, 2021-05-23)"
   inkscape:dataloss="true"
   xmlns:inkscape="http://www.inkscape.org/namespaces/inkscape"
   xmlns:sodipodi="http://sodipodi.sourceforge.net/DTD/sodipodi-0.dtd"
   xmlns:xlink="http://www.w3.org/1999/xlink"
   xmlns="http://www.w3.org/2000/svg"
   xmlns:svg="http://www.w3.org/2000/svg">
  <sodipodi:namedview
     id="namedview87"
     pagecolor="#ffffff"
     bordercolor="#666666"
     borderopacity="1.0"
     inkscape:pageshadow="2"
     inkscape:pageopacity="0.0"
     inkscape:pagecheckerboard="0"
     showgrid="false"
     fit-margin-top="0"
     fit-margin-left="0"
     fit-margin-right="0"
     fit-margin-bottom="0"
     inkscape:zoom="0.82730178"
     inkscape:cx="436.3583"
     inkscape:cy="121.47925"
     inkscape:window-width="1920"
     inkscape:window-height="1016"
     inkscape:window-x="1920"
     inkscape:window-y="27"
     inkscape:window-maximized="1"
     inkscape:current-layer="Layer_2" />
  <defs
     id="defs14">
    <linearGradient
       id="linearGradient78890"
       x1="248.97"
       y1="189.06"
       x2="248.97"
       y2="85.980003"
       gradientUnits="userSpaceOnUse"
       gradientTransform="matrix(0.58023559,0,0,0.58023559,-37.028279,-29.124855)"
       spreadMethod="pad">
      <stop
         offset="0.45436519"
         stop-color="#3e070b"
         id="stop78886"
         style="stop-color:#9c2d05;stop-opacity:1" />
      <stop
         offset="1"
         stop-color="#cd642c"
         id="stop78888"
         style="stop-color:#f26912;stop-opacity:1" />
    </linearGradient>
    <style
       id="style2">
.cls-1 { 
}

      .cls-2 {
        fill: url(#linear-gradient-2);
      }

      .cls-3 {
        fill: #232323;
      }
.cls-4 { 
    font-family:Calibri;
    font-size:13.78px;
    letter-spacing:0.27em;
}

      .cls-5 {
        letter-spacing: 0.28em;
      }

      .cls-6 {
        letter-spacing: 0.28em;
      }

      .cls-7 {
        letter-spacing: 0.27em;
      }

      .cls-8 {
        letter-spacing: 0.27em;
      }

      .cls-9 {
        letter-spacing: 0.28em;
      }

      .cls-10 {
        letter-spacing: 0.2em;
      }

      .cls-11 {
        letter-spacing: 0.27em;
      }
    </style>
    <linearGradient
       id="linear-gradient"
       x1="248.97"
       y1="189.06"
       x2="248.97"
       y2="85.980003"
       gradientUnits="userSpaceOnUse"
       gradientTransform="matrix(0.58023559,0,0,0.58023559,-37.028279,-29.124855)"
       spreadMethod="pad">
      <stop
         offset="0.01"
         stop-color="#3e070b"
         id="stop4"
         style="stop-color:#9c2d05;stop-opacity:1" />
      <stop
         offset="1"
         stop-color="#cd642c"
         id="stop6"
         style="stop-color:#f26912;stop-opacity:1" />
    </linearGradient>
    <linearGradient
       inkscape:collect="always"
       xlink:href="#linearGradient78890"
       id="linearGradient78820"
       x1="145.21211"
       y1="80.678925"
       x2="142.76483"
       y2="22.196196"
       gradientUnits="userSpaceOnUse"
       gradientTransform="matrix(2.8785104,0,0,2.8785104,-233.13739,-60.962345)" />
    <linearGradient
       inkscape:collect="always"
       xlink:href="#linear-gradient"
       id="linearGradient79601"
       gradientUnits="userSpaceOnUse"
       gradientTransform="matrix(1.6702142,0,0,1.6702142,-339.72369,-144.79854)"
       x1="248.97"
       y1="189.06"
       x2="248.97"
       y2="85.980003"
       spreadMethod="pad" />
  </defs>
  <path
     class="cls-1"
     d="M 58.138106,170.97214 H 1.0000063 L 63.516206,9.712965 c 0,0 2.8727,-7.54936 13.3617,-8.98575 h 13.3617 L 151.11891,157.59373 c 0,0 2.5888,11.85851 -9.8376,12.81054 h -7.8333 L 78.681706,28.903725 30.796706,152.11542 h 12.6101 c 0,0 15.2991,0.21713 14.7313,18.85672 z"
     id="path16"
     style="fill:url(#linearGradient79601);fill-opacity:1;stroke-width:1.67022" />
  <path
     class="cls-2"
     d="m 203.56361,1.027855 h 57.1714 l -62.5161,161.259175 c 0,0 -2.8728,7.54936 -13.3617,8.98575 h -13.3617 L 110.64961,14.406265 c 0,0 -2.5721,-11.85851 9.8543,-12.81054 h 7.7331 l 54.8164,141.567345 47.885,-123.211685 h -12.6435 c 0,0 -15.2992,-0.28394 -14.7313,-18.92353 z"
     id="path18"
     style="fill:url(#linearGradient78820);fill-opacity:1;stroke-width:1.67022" />
  <g
     id="g56"
     transform="matrix(2.8785104,0,0,2.8785104,268.09851,-304.20832)"
     style="fill:#1a1a1a">
    <path
       class="cls-3"
       d="m 172.44,226.32 a 5,5 0 0 1 0.22,0.83 0.48,0.48 0 0 1 -0.12,0.45 0.84,0.84 0 0 1 -0.56,0.19 c -0.28,0 -0.65,0 -1.13,0 h -1.16 a 3.33,3.33 0 0 1 -0.63,-0.09 0.54,0.54 0 0 1 -0.31,-0.18 1.05,1.05 0 0 1 -0.15,-0.3 l -1.27,-3.78 h -7.09 l -1.19,3.67 a 1.2,1.2 0 0 1 -0.16,0.34 0.54,0.54 0 0 1 -0.3,0.22 2.15,2.15 0 0 1 -0.6,0.11 q -0.39,0 -1,0 a 9.6,9.6 0 0 1 -1.05,0 0.79,0.79 0 0 1 -0.52,-0.21 0.61,0.61 0 0 1 -0.11,-0.48 5.69,5.69 0 0 1 0.22,-0.81 l 5.83,-16.65 a 1.36,1.36 0 0 1 0.2,-0.4 0.78,0.78 0 0 1 0.37,-0.23 3.53,3.53 0 0 1 0.71,-0.1 h 1.2 1.37 a 4.28,4.28 0 0 1 0.79,0.1 0.84,0.84 0 0 1 0.41,0.24 1.13,1.13 0 0 1 0.21,0.44 z m -8.67,-13.76 v 0 l -2.67,8 h 5.35 z"
       transform="translate(-154.91,-87.13)"
       id="path20"
       style="fill:#1a1a1a" />
    <path
       class="cls-3"
       d="m 187.21,227.25 a 0.45,0.45 0 0 1 -0.07,0.27 0.56,0.56 0 0 1 -0.25,0.18 1.66,1.66 0 0 1 -0.47,0.1 c -0.2,0 -0.45,0 -0.74,0 -0.29,0 -0.57,0 -0.76,0 a 1.74,1.74 0 0 1 -0.47,-0.1 0.64,0.64 0 0 1 -0.27,-0.18 0.46,0.46 0 0 1 -0.08,-0.27 v -1.44 a 8,8 0 0 1 -2.11,1.67 5.5,5.5 0 0 1 -5,0 4.86,4.86 0 0 1 -1.68,-1.54 6.92,6.92 0 0 1 -0.94,-2.27 12.76,12.76 0 0 1 -0.29,-2.73 11.9,11.9 0 0 1 0.37,-3.11 7,7 0 0 1 1.09,-2.35 4.83,4.83 0 0 1 1.78,-1.49 5.48,5.48 0 0 1 2.45,-0.52 4.37,4.37 0 0 1 2,0.44 6.93,6.93 0 0 1 1.76,1.3 v -7 a 0.5,0.5 0 0 1 0.08,-0.26 0.65,0.65 0 0 1 0.3,-0.2 2.67,2.67 0 0 1 0.56,-0.12 7.31,7.31 0 0 1 0.89,0 7.41,7.41 0 0 1 0.89,0 2.55,2.55 0 0 1 0.55,0.12 0.61,0.61 0 0 1 0.29,0.2 0.43,0.43 0 0 1 0.09,0.26 z m -3.65,-8.64 a 7.94,7.94 0 0 0 -1.51,-1.51 2.51,2.51 0 0 0 -1.51,-0.52 2.09,2.09 0 0 0 -1.23,0.35 2.56,2.56 0 0 0 -0.83,0.95 5,5 0 0 0 -0.47,1.33 7.48,7.48 0 0 0 -0.15,1.5 9.11,9.11 0 0 0 0.13,1.58 5,5 0 0 0 0.43,1.37 2.59,2.59 0 0 0 0.79,1 2,2 0 0 0 1.26,0.37 2.65,2.65 0 0 0 0.74,-0.11 2.74,2.74 0 0 0 0.73,-0.36 5.17,5.17 0 0 0 0.76,-0.64 c 0.26,-0.27 0.55,-0.59 0.86,-1 z"
       transform="translate(-154.91,-87.13)"
       id="path22"
       style="fill:#1a1a1a" />
    <path
       class="cls-3"
       d="m 199.27,215.52 c 0,0.35 0,0.63 0,0.85 a 2.37,2.37 0 0 1 -0.09,0.52 0.56,0.56 0 0 1 -0.15,0.27 0.48,0.48 0 0 1 -0.24,0.07 1,1 0 0 1 -0.27,0 3.17,3.17 0 0 0 -0.33,-0.11 3.26,3.26 0 0 0 -0.4,-0.11 2.28,2.28 0 0 0 -0.48,-0.05 1.66,1.66 0 0 0 -0.61,0.12 2.34,2.34 0 0 0 -0.64,0.39 4.46,4.46 0 0 0 -0.68,0.69 10.27,10.27 0 0 0 -0.77,1.08 v 8.06 a 0.37,0.37 0 0 1 -0.09,0.25 0.48,0.48 0 0 1 -0.3,0.18 2.21,2.21 0 0 1 -0.56,0.11 7.31,7.31 0 0 1 -0.89,0 7.41,7.41 0 0 1 -0.89,0 2.3,2.3 0 0 1 -0.56,-0.11 0.55,0.55 0 0 1 -0.3,-0.18 0.37,0.37 0 0 1 -0.09,-0.25 v -12.99 a 0.44,0.44 0 0 1 0.08,-0.25 0.54,0.54 0 0 1 0.26,-0.18 1.88,1.88 0 0 1 0.49,-0.11 7.37,7.37 0 0 1 0.75,0 7.64,7.64 0 0 1 0.77,0 1.55,1.55 0 0 1 0.48,0.11 0.58,0.58 0 0 1 0.24,0.18 0.43,0.43 0 0 1 0.07,0.25 v 1.61 a 10.26,10.26 0 0 1 1,-1.19 5.08,5.08 0 0 1 0.87,-0.75 2.69,2.69 0 0 1 0.81,-0.38 3.41,3.41 0 0 1 1.23,-0.09 3.79,3.79 0 0 1 0.45,0.07 2,2 0 0 1 0.41,0.12 1,1 0 0 1 0.26,0.13 0.51,0.51 0 0 1 0.11,0.16 1,1 0 0 1 0.07,0.24 3.72,3.72 0 0 1 0,0.46 c -0.02,0.2 -0.01,0.48 -0.01,0.83 z"
       transform="translate(-154.91,-87.13)"
       id="path24"
       style="fill:#1a1a1a" />
    <path
       class="cls-3"
       d="m 205.48,209.93 a 2.06,2.06 0 0 1 -0.45,1.53 3.59,3.59 0 0 1 -3.35,0 2,2 0 0 1 -0.43,-1.46 2.06,2.06 0 0 1 0.45,-1.53 2.41,2.41 0 0 1 1.68,-0.43 2.54,2.54 0 0 1 1.67,0.41 2,2 0 0 1 0.43,1.48 z m -0.27,17.32 a 0.37,0.37 0 0 1 -0.09,0.25 0.55,0.55 0 0 1 -0.3,0.18 2.3,2.3 0 0 1 -0.56,0.11 7.41,7.41 0 0 1 -0.89,0 7.31,7.31 0 0 1 -0.89,0 2.4,2.4 0 0 1 -0.57,-0.11 0.49,0.49 0 0 1 -0.29,-0.18 0.37,0.37 0 0 1 -0.09,-0.25 v -12.91 a 0.38,0.38 0 0 1 0.09,-0.25 0.61,0.61 0 0 1 0.29,-0.19 2.94,2.94 0 0 1 0.57,-0.12 7,7 0 0 1 0.89,-0.05 7.16,7.16 0 0 1 0.89,0.05 2.82,2.82 0 0 1 0.56,0.12 0.71,0.71 0 0 1 0.3,0.19 0.38,0.38 0 0 1 0.09,0.25 z"
       transform="translate(-154.91,-87.13)"
       id="path26"
       style="fill:#1a1a1a" />
    <path
       class="cls-3"
       d="m 220,227.29 a 0.38,0.38 0 0 1 -0.15,0.32 0.9,0.9 0 0 1 -0.46,0.17 6.65,6.65 0 0 1 -0.92,0.05 7,7 0 0 1 -1,-0.05 0.75,0.75 0 0 1 -0.42,-0.17 0.43,0.43 0 0 1 -0.13,-0.32 v -1 a 5.84,5.84 0 0 1 -1.83,1.34 5.29,5.29 0 0 1 -2.28,0.48 6.44,6.44 0 0 1 -1.91,-0.27 4.41,4.41 0 0 1 -1.5,-0.8 3.56,3.56 0 0 1 -1,-1.31 4.33,4.33 0 0 1 -0.35,-1.83 4.05,4.05 0 0 1 0.44,-2 3.59,3.59 0 0 1 1.33,-1.38 6.83,6.83 0 0 1 2.2,-0.81 16.06,16.06 0 0 1 3.05,-0.26 h 1.27 v -0.78 a 4.23,4.23 0 0 0 -0.13,-1.07 1.63,1.63 0 0 0 -1.17,-1.21 3.9,3.9 0 0 0 -1.17,-0.14 5.9,5.9 0 0 0 -1.64,0.2 11.06,11.06 0 0 0 -1.28,0.45 10.32,10.32 0 0 0 -0.93,0.45 1.39,1.39 0 0 1 -0.6,0.2 0.45,0.45 0 0 1 -0.29,-0.1 0.71,0.71 0 0 1 -0.2,-0.29 1.81,1.81 0 0 1 -0.12,-0.46 3.86,3.86 0 0 1 -0.05,-0.61 3.18,3.18 0 0 1 0.07,-0.71 1.14,1.14 0 0 1 0.28,-0.47 2.87,2.87 0 0 1 0.72,-0.47 8,8 0 0 1 1.17,-0.44 11.79,11.79 0 0 1 1.5,-0.36 10.18,10.18 0 0 1 1.67,-0.13 10.47,10.47 0 0 1 2.62,0.29 4.53,4.53 0 0 1 1.79,0.92 3.56,3.56 0 0 1 1,1.59 7.42,7.42 0 0 1 0.32,2.3 z m -3.6,-5.54 H 215 a 8,8 0 0 0 -1.51,0.13 2.82,2.82 0 0 0 -1,0.4 1.51,1.51 0 0 0 -0.58,0.63 1.89,1.89 0 0 0 -0.18,0.84 1.64,1.64 0 0 0 0.51,1.28 2.09,2.09 0 0 0 1.44,0.46 2.68,2.68 0 0 0 1.42,-0.39 5.83,5.83 0 0 0 1.33,-1.14 z"
       transform="translate(-154.91,-87.13)"
       id="path28"
       style="fill:#1a1a1a" />
    <path
       class="cls-3"
       d="m 236.06,227.25 a 0.37,0.37 0 0 1 -0.09,0.25 0.56,0.56 0 0 1 -0.29,0.18 2.3,2.3 0 0 1 -0.56,0.11 7.52,7.52 0 0 1 -0.89,0 7.31,7.31 0 0 1 -0.89,0 2.3,2.3 0 0 1 -0.57,-0.11 0.56,0.56 0 0 1 -0.29,-0.18 0.37,0.37 0 0 1 -0.09,-0.25 v -7.38 a 6.4,6.4 0 0 0 -0.13,-1.48 2.88,2.88 0 0 0 -0.41,-0.92 1.76,1.76 0 0 0 -0.67,-0.6 2.13,2.13 0 0 0 -1,-0.21 2.45,2.45 0 0 0 -1.42,0.51 7.64,7.64 0 0 0 -1.49,1.48 v 8.6 a 0.37,0.37 0 0 1 -0.09,0.25 0.48,0.48 0 0 1 -0.3,0.18 2.21,2.21 0 0 1 -0.56,0.11 7.31,7.31 0 0 1 -0.89,0 7.41,7.41 0 0 1 -0.89,0 2.3,2.3 0 0 1 -0.56,-0.11 0.55,0.55 0 0 1 -0.3,-0.18 0.37,0.37 0 0 1 -0.09,-0.25 v -12.94 a 0.44,0.44 0 0 1 0.08,-0.25 0.54,0.54 0 0 1 0.26,-0.18 1.88,1.88 0 0 1 0.49,-0.11 7.37,7.37 0 0 1 0.75,0 7.64,7.64 0 0 1 0.77,0 1.55,1.55 0 0 1 0.48,0.11 0.58,0.58 0 0 1 0.24,0.18 0.43,0.43 0 0 1 0.07,0.25 v 1.5 a 7.93,7.93 0 0 1 2.2,-1.74 4.93,4.93 0 0 1 2.33,-0.58 5.2,5.2 0 0 1 2.24,0.43 4,4 0 0 1 1.5,1.18 4.94,4.94 0 0 1 0.81,1.75 10.44,10.44 0 0 1 0.25,2.41 z"
       transform="translate(-154.91,-87.13)"
       id="path30"
       style="fill:#1a1a1a" />
    <path
       class="cls-3"
       d="m 250.75,227.29 a 0.4,0.4 0 0 1 -0.14,0.32 0.94,0.94 0 0 1 -0.46,0.17 6.93,6.93 0 0 1 -0.93,0.05 6.74,6.74 0 0 1 -0.95,-0.05 0.79,0.79 0 0 1 -0.43,-0.17 0.42,0.42 0 0 1 -0.12,-0.32 v -1 a 6.08,6.08 0 0 1 -1.83,1.34 5.37,5.37 0 0 1 -2.29,0.48 6.37,6.37 0 0 1 -1.9,-0.27 4.45,4.45 0 0 1 -1.51,-0.8 3.56,3.56 0 0 1 -1,-1.31 4.49,4.49 0 0 1 -0.35,-1.83 4.17,4.17 0 0 1 0.44,-2 3.59,3.59 0 0 1 1.33,-1.38 6.83,6.83 0 0 1 2.2,-0.81 16.06,16.06 0 0 1 3,-0.26 h 1.27 v -0.78 a 3.82,3.82 0 0 0 -0.13,-1.07 1.73,1.73 0 0 0 -0.4,-0.76 1.79,1.79 0 0 0 -0.76,-0.45 4,4 0 0 0 -1.18,-0.14 5.9,5.9 0 0 0 -1.64,0.2 11.06,11.06 0 0 0 -1.28,0.45 10,10 0 0 0 -0.92,0.45 1.43,1.43 0 0 1 -0.61,0.2 0.4,0.4 0 0 1 -0.28,-0.1 0.73,0.73 0 0 1 -0.21,-0.29 2.35,2.35 0 0 1 -0.12,-0.46 3.86,3.86 0 0 1 -0.05,-0.61 2.62,2.62 0 0 1 0.08,-0.71 1.11,1.11 0 0 1 0.27,-0.47 2.87,2.87 0 0 1 0.72,-0.47 7.71,7.71 0 0 1 1.2,-0.47 11.23,11.23 0 0 1 1.49,-0.36 10.18,10.18 0 0 1 1.67,-0.13 10.36,10.36 0 0 1 2.62,0.29 4.46,4.46 0 0 1 1.79,0.92 3.48,3.48 0 0 1 1,1.59 7.14,7.14 0 0 1 0.32,2.3 z m -3.6,-5.54 h -1.4 a 8.12,8.12 0 0 0 -1.52,0.13 2.82,2.82 0 0 0 -1,0.4 1.58,1.58 0 0 0 -0.58,0.63 1.89,1.89 0 0 0 -0.18,0.84 1.61,1.61 0 0 0 0.53,1.25 2.06,2.06 0 0 0 1.44,0.46 2.71,2.71 0 0 0 1.42,-0.39 6,6 0 0 0 1.32,-1.14 z"
       transform="translate(-154.91,-87.13)"
       id="path32"
       style="fill:#1a1a1a" />
    <path
       class="cls-3"
       d="m 270.79,227.08 a 1.18,1.18 0 0 1 -0.19,0.39 0.72,0.72 0 0 1 -0.38,0.24 3.53,3.53 0 0 1 -0.71,0.1 h -1.19 -1 a 7,7 0 0 1 -0.71,0 2.29,2.29 0 0 1 -0.48,-0.09 1.05,1.05 0 0 1 -0.3,-0.15 0.43,0.43 0 0 1 -0.19,-0.21 1.31,1.31 0 0 1 -0.13,-0.31 L 259.9,210.4 a 5.88,5.88 0 0 1 -0.21,-0.83 0.51,0.51 0 0 1 0.15,-0.46 1.11,1.11 0 0 1 0.62,-0.18 c 0.29,0 0.7,0 1.22,0 0.52,0 0.8,0 1.06,0 a 2.36,2.36 0 0 1 0.58,0.1 0.46,0.46 0 0 1 0.28,0.22 1.54,1.54 0 0 1 0.16,0.36 l 4.59,14.47 v 0 l 4.51,-14.4 a 2,2 0 0 1 0.14,-0.4 0.62,0.62 0 0 1 0.3,-0.24 2.48,2.48 0 0 1 0.61,-0.11 q 0.39,0 1.08,0 a 9.4,9.4 0 0 1 1,0 0.76,0.76 0 0 1 0.51,0.21 0.55,0.55 0 0 1 0.09,0.47 4.62,4.62 0 0 1 -0.23,0.82 z"
       transform="translate(-154.91,-87.13)"
       id="path34"
       style="fill:#1a1a1a" />
    <path
       class="cls-3"
       d="m 288.29,227.29 a 0.38,0.38 0 0 1 -0.15,0.32 0.9,0.9 0 0 1 -0.46,0.17 6.65,6.65 0 0 1 -0.92,0.05 7,7 0 0 1 -1,-0.05 0.75,0.75 0 0 1 -0.42,-0.17 0.39,0.39 0 0 1 -0.13,-0.32 v -1 a 5.84,5.84 0 0 1 -1.83,1.34 5.29,5.29 0 0 1 -2.28,0.48 6.44,6.44 0 0 1 -1.91,-0.27 4.41,4.41 0 0 1 -1.5,-0.8 3.56,3.56 0 0 1 -1,-1.31 4.33,4.33 0 0 1 -0.35,-1.83 4.05,4.05 0 0 1 0.44,-2 3.59,3.59 0 0 1 1.33,-1.38 6.83,6.83 0 0 1 2.2,-0.81 16.06,16.06 0 0 1 3.05,-0.26 h 1.26 v -0.78 a 4.26,4.26 0 0 0 -0.12,-1.07 1.63,1.63 0 0 0 -1.17,-1.21 3.9,3.9 0 0 0 -1.17,-0.14 5.9,5.9 0 0 0 -1.64,0.2 10.43,10.43 0 0 0 -1.28,0.45 10.32,10.32 0 0 0 -0.93,0.45 1.43,1.43 0 0 1 -0.6,0.2 0.45,0.45 0 0 1 -0.29,-0.1 0.71,0.71 0 0 1 -0.2,-0.29 1.79,1.79 0 0 1 -0.13,-0.46 5.68,5.68 0 0 1 0,-0.61 2.68,2.68 0 0 1 0.07,-0.71 1,1 0 0 1 0.28,-0.47 2.87,2.87 0 0 1 0.72,-0.47 8,8 0 0 1 1.19,-0.47 11.79,11.79 0 0 1 1.5,-0.36 10.18,10.18 0 0 1 1.67,-0.13 10.47,10.47 0 0 1 2.62,0.29 4.53,4.53 0 0 1 1.79,0.92 3.65,3.65 0 0 1 1,1.59 7.42,7.42 0 0 1 0.32,2.3 z m -3.61,-5.54 h -1.4 a 8,8 0 0 0 -1.51,0.13 3,3 0 0 0 -1,0.4 1.56,1.56 0 0 0 -0.57,0.63 1.89,1.89 0 0 0 -0.18,0.84 1.64,1.64 0 0 0 0.51,1.28 2.09,2.09 0 0 0 1.44,0.46 2.68,2.68 0 0 0 1.42,-0.39 5.59,5.59 0 0 0 1.32,-1.14 z"
       transform="translate(-154.91,-87.13)"
       id="path36"
       style="fill:#1a1a1a" />
    <path
       class="cls-3"
       d="m 301.12,223.59 a 4.31,4.31 0 0 1 -0.42,1.95 4,4 0 0 1 -1.17,1.41 5.54,5.54 0 0 1 -1.8,0.84 8.45,8.45 0 0 1 -2.25,0.29 8.9,8.9 0 0 1 -1.39,-0.11 10,10 0 0 1 -1.19,-0.28 5.46,5.46 0 0 1 -0.87,-0.34 2.05,2.05 0 0 1 -0.52,-0.32 1.08,1.08 0 0 1 -0.24,-0.48 3.91,3.91 0 0 1 -0.09,-1 5.94,5.94 0 0 1 0,-0.67 1.68,1.68 0 0 1 0.09,-0.41 0.31,0.31 0 0 1 0.14,-0.2 0.38,0.38 0 0 1 0.22,-0.05 1.1,1.1 0 0 1 0.48,0.18 c 0.2,0.12 0.46,0.25 0.78,0.4 a 8.25,8.25 0 0 0 1.08,0.4 4.76,4.76 0 0 0 1.41,0.19 3.33,3.33 0 0 0 0.88,-0.1 2.22,2.22 0 0 0 0.74,-0.29 1.17,1.17 0 0 0 0.43,-0.48 1.54,1.54 0 0 0 0.14,-0.67 1.09,1.09 0 0 0 -0.27,-0.74 2.53,2.53 0 0 0 -0.71,-0.55 8.76,8.76 0 0 0 -1,-0.43 l -1.15,-0.45 a 8.9,8.9 0 0 1 -1.16,-0.57 4.21,4.21 0 0 1 -1,-0.78 3.48,3.48 0 0 1 -0.72,-1.12 4,4 0 0 1 -0.27,-1.56 3.89,3.89 0 0 1 0.37,-1.71 3.62,3.62 0 0 1 1.05,-1.32 4.79,4.79 0 0 1 1.67,-0.86 7.57,7.57 0 0 1 2.21,-0.3 9.26,9.26 0 0 1 1.19,0.08 8.58,8.58 0 0 1 1,0.22 5.44,5.44 0 0 1 0.79,0.28 3.73,3.73 0 0 1 0.46,0.26 1,1 0 0 1 0.2,0.22 0.66,0.66 0 0 1 0.08,0.26 c 0,0.11 0,0.23 0.06,0.38 0.06,0.15 0,0.34 0,0.56 0,0.22 0,0.47 0,0.64 a 1.66,1.66 0 0 1 -0.08,0.39 0.29,0.29 0 0 1 -0.14,0.19 0.32,0.32 0 0 1 -0.2,0.06 1.09,1.09 0 0 1 -0.41,-0.16 5.8,5.8 0 0 0 -0.69,-0.32 7.64,7.64 0 0 0 -1,-0.33 4.81,4.81 0 0 0 -1.25,-0.15 3.13,3.13 0 0 0 -0.86,0.1 1.53,1.53 0 0 0 -0.6,0.29 1.22,1.22 0 0 0 -0.35,0.44 1.26,1.26 0 0 0 -0.12,0.55 1,1 0 0 0 0.28,0.75 2.66,2.66 0 0 0 0.73,0.54 7.81,7.81 0 0 0 1,0.43 c 0.38,0.14 0.77,0.28 1.16,0.44 a 10.45,10.45 0 0 1 1.17,0.56 4.47,4.47 0 0 1 1,0.79 3.46,3.46 0 0 1 0.73,1.11 3.93,3.93 0 0 1 0.38,1.55 z"
       transform="translate(-154.91,-87.13)"
       id="path38"
       style="fill:#1a1a1a" />
    <path
       class="cls-3"
       d="m 313.73,225.19 c 0,0.25 0,0.46 0,0.63 0,0.17 0,0.31 -0.06,0.43 a 1.86,1.86 0 0 1 -0.09,0.28 1.17,1.17 0 0 1 -0.23,0.28 2.89,2.89 0 0 1 -0.6,0.4 5.33,5.33 0 0 1 -1,0.43 7.67,7.67 0 0 1 -1.17,0.31 8.08,8.08 0 0 1 -1.31,0.11 7.1,7.1 0 0 1 -2.66,-0.46 5,5 0 0 1 -1.95,-1.37 6,6 0 0 1 -1.19,-2.21 11.58,11.58 0 0 1 0.09,-6.35 6.39,6.39 0 0 1 1.36,-2.34 5.46,5.46 0 0 1 2.08,-1.33 7.45,7.45 0 0 1 2.63,-0.45 7.34,7.34 0 0 1 1.15,0.1 6.72,6.72 0 0 1 1,0.28 5,5 0 0 1 0.87,0.39 2.41,2.41 0 0 1 0.55,0.38 1.27,1.27 0 0 1 0.23,0.27 1.11,1.11 0 0 1 0.1,0.28 c 0,0.11 0,0.26 0.06,0.43 0.06,0.17 0,0.37 0,0.61 a 3.21,3.21 0 0 1 -0.15,1.18 c -0.09,0.23 -0.22,0.34 -0.38,0.34 a 0.85,0.85 0 0 1 -0.52,-0.2 l -0.66,-0.45 a 5.38,5.38 0 0 0 -0.9,-0.45 3.62,3.62 0 0 0 -1.26,-0.2 2.51,2.51 0 0 0 -2.19,1.09 5.71,5.71 0 0 0 -0.76,3.22 8.39,8.39 0 0 0 0.19,1.84 4.07,4.07 0 0 0 0.56,1.33 2.36,2.36 0 0 0 0.94,0.81 3,3 0 0 0 1.3,0.27 3.41,3.41 0 0 0 1.31,-0.23 5.73,5.73 0 0 0 1,-0.5 8.1,8.1 0 0 0 0.68,-0.5 0.81,0.81 0 0 1 0.47,-0.22 0.32,0.32 0 0 1 0.22,0.07 0.56,0.56 0 0 1 0.14,0.27 3.75,3.75 0 0 1 0.08,0.5 q 0.07,0.25 0.07,0.73 z"
       transform="translate(-154.91,-87.13)"
       id="path40"
       style="fill:#1a1a1a" />
    <path
       class="cls-3"
       d="m 329.4,220.65 a 9.62,9.62 0 0 1 -0.44,3 6.38,6.38 0 0 1 -1.32,2.35 6.05,6.05 0 0 1 -2.24,1.52 8.36,8.36 0 0 1 -3.14,0.54 8.66,8.66 0 0 1 -3,-0.48 5.63,5.63 0 0 1 -2.13,-1.39 5.74,5.74 0 0 1 -1.25,-2.25 10.52,10.52 0 0 1 -0.41,-3.05 9.92,9.92 0 0 1 0.44,-3 6.39,6.39 0 0 1 1.34,-2.35 6,6 0 0 1 2.23,-1.52 8.51,8.51 0 0 1 3.13,-0.53 8.65,8.65 0 0 1 3,0.47 5.21,5.21 0 0 1 2.12,1.38 5.74,5.74 0 0 1 1.25,2.25 10.21,10.21 0 0 1 0.42,3.06 z m -3.78,0.15 a 9.74,9.74 0 0 0 -0.15,-1.77 4.24,4.24 0 0 0 -0.52,-1.4 2.6,2.6 0 0 0 -1,-0.92 3,3 0 0 0 -1.53,-0.34 3.23,3.23 0 0 0 -1.43,0.3 2.61,2.61 0 0 0 -1,0.87 4,4 0 0 0 -0.59,1.38 7.27,7.27 0 0 0 -0.2,1.83 8.72,8.72 0 0 0 0.16,1.76 4.29,4.29 0 0 0 0.52,1.4 2.39,2.39 0 0 0 1,0.92 3.17,3.17 0 0 0 1.52,0.33 3.25,3.25 0 0 0 1.44,-0.3 2.47,2.47 0 0 0 1,-0.86 3.88,3.88 0 0 0 0.58,-1.37 7.86,7.86 0 0 0 0.2,-1.83 z"
       transform="translate(-154.91,-87.13)"
       id="path42"
       style="fill:#1a1a1a" />
    <path
       class="cls-3"
       d="m 344.74,227.25 a 0.37,0.37 0 0 1 -0.09,0.25 0.52,0.52 0 0 1 -0.29,0.18 2.21,2.21 0 0 1 -0.56,0.11 9.92,9.92 0 0 1 -1.78,0 2.12,2.12 0 0 1 -0.56,-0.11 0.55,0.55 0 0 1 -0.3,-0.18 0.41,0.41 0 0 1 -0.08,-0.25 v -7.38 a 6.32,6.32 0 0 0 -0.14,-1.48 3.12,3.12 0 0 0 -0.4,-0.92 1.78,1.78 0 0 0 -0.68,-0.6 2.13,2.13 0 0 0 -1,-0.21 2.45,2.45 0 0 0 -1.42,0.51 7.64,7.64 0 0 0 -1.49,1.48 v 8.6 a 0.41,0.41 0 0 1 -0.08,0.25 0.55,0.55 0 0 1 -0.3,0.18 2.3,2.3 0 0 1 -0.57,0.11 7.31,7.31 0 0 1 -0.89,0 7.41,7.41 0 0 1 -0.89,0 2.3,2.3 0 0 1 -0.56,-0.11 0.55,0.55 0 0 1 -0.3,-0.18 0.36,0.36 0 0 1 -0.08,-0.25 v -12.94 a 0.43,0.43 0 0 1 0.07,-0.25 0.54,0.54 0 0 1 0.26,-0.18 1.88,1.88 0 0 1 0.49,-0.11 7.37,7.37 0 0 1 0.75,0 c 0.31,0 0.57,0 0.78,0 a 1.55,1.55 0 0 1 0.47,0.11 0.58,0.58 0 0 1 0.24,0.18 0.43,0.43 0 0 1 0.07,0.25 v 1.5 a 8.07,8.07 0 0 1 2.2,-1.74 4.93,4.93 0 0 1 2.33,-0.58 5.2,5.2 0 0 1 2.24,0.43 3.92,3.92 0 0 1 1.47,1.18 4.62,4.62 0 0 1 0.81,1.75 9.91,9.91 0 0 1 0.25,2.41 z"
       transform="translate(-154.91,-87.13)"
       id="path44"
       style="fill:#1a1a1a" />
    <path
       class="cls-3"
       d="m 358.2,225.19 a 5.53,5.53 0 0 1 0,0.63 2.34,2.34 0 0 1 -0.06,0.43 1.2,1.2 0 0 1 -0.08,0.28 1.17,1.17 0 0 1 -0.23,0.28 3.58,3.58 0 0 1 -0.6,0.4 5.33,5.33 0 0 1 -1,0.43 7.51,7.51 0 0 1 -1.18,0.31 7.86,7.86 0 0 1 -1.3,0.11 7.19,7.19 0 0 1 -2.67,-0.46 5,5 0 0 1 -1.94,-1.37 5.88,5.88 0 0 1 -1.14,-2.23 11.58,11.58 0 0 1 0.09,-6.35 6.39,6.39 0 0 1 1.36,-2.34 5.39,5.39 0 0 1 2.07,-1.38 7.41,7.41 0 0 1 2.63,-0.45 7.11,7.11 0 0 1 1.14,0.1 6.18,6.18 0 0 1 1.05,0.28 4.76,4.76 0 0 1 0.88,0.39 2.41,2.41 0 0 1 0.55,0.38 1.18,1.18 0 0 1 0.22,0.27 0.82,0.82 0 0 1 0.11,0.28 3.67,3.67 0 0 1 0.05,0.43 5.28,5.28 0 0 1 0,0.61 3.21,3.21 0 0 1 -0.15,1.18 c -0.1,0.23 -0.22,0.34 -0.38,0.34 a 0.85,0.85 0 0 1 -0.52,-0.2 l -0.66,-0.45 a 5.51,5.51 0 0 0 -0.91,-0.45 3.56,3.56 0 0 0 -1.25,-0.2 2.51,2.51 0 0 0 -2.19,1.09 5.63,5.63 0 0 0 -0.76,3.22 7.83,7.83 0 0 0 0.19,1.84 3.87,3.87 0 0 0 0.56,1.33 2.36,2.36 0 0 0 0.94,0.81 3,3 0 0 0 1.3,0.27 3.45,3.45 0 0 0 1.31,-0.23 5.61,5.61 0 0 0 0.95,-0.5 7,7 0 0 0 0.69,-0.5 0.81,0.81 0 0 1 0.47,-0.22 0.32,0.32 0 0 1 0.22,0.07 0.56,0.56 0 0 1 0.14,0.27 3.75,3.75 0 0 1 0.08,0.5 c 0,0.22 0.02,0.48 0.02,0.8 z"
       transform="translate(-154.91,-87.13)"
       id="path46"
       style="fill:#1a1a1a" />
    <path
       class="cls-3"
       d="m 372.88,220.4 a 1.4,1.4 0 0 1 -0.3,1 1.1,1.1 0 0 1 -0.83,0.32 h -7.92 a 5,5 0 0 0 0.2,1.5 3,3 0 0 0 0.62,1.15 2.76,2.76 0 0 0 1.11,0.71 4.66,4.66 0 0 0 1.63,0.25 9.29,9.29 0 0 0 1.69,-0.14 10.73,10.73 0 0 0 1.26,-0.3 c 0.36,-0.11 0.65,-0.21 0.89,-0.31 a 1.62,1.62 0 0 1 0.57,-0.13 0.4,0.4 0 0 1 0.22,0.05 0.39,0.39 0 0 1 0.14,0.18 1.07,1.07 0 0 1 0.08,0.37 5.26,5.26 0 0 1 0,0.6 c 0,0.21 0,0.39 0,0.54 0,0.15 0,0.28 0,0.39 a 1.07,1.07 0 0 1 -0.09,0.27 1,1 0 0 1 -0.16,0.21 1.75,1.75 0 0 1 -0.51,0.27 8.23,8.23 0 0 1 -1.08,0.34 14.56,14.56 0 0 1 -1.51,0.29 11.41,11.41 0 0 1 -1.81,0.13 9.64,9.64 0 0 1 -3,-0.44 5.39,5.39 0 0 1 -2.18,-1.32 5.55,5.55 0 0 1 -1.31,-2.23 10.64,10.64 0 0 1 -0.43,-3.16 10,10 0 0 1 0.45,-3.11 6.48,6.48 0 0 1 1.32,-2.35 5.57,5.57 0 0 1 2.07,-1.48 8.19,8.19 0 0 1 5.58,0 5,5 0 0 1 1.9,1.32 5.46,5.46 0 0 1 1.1,2 8.82,8.82 0 0 1 0.35,2.52 z m -3.56,-1 a 3.79,3.79 0 0 0 -0.62,-2.41 2.41,2.41 0 0 0 -2.06,-0.88 2.7,2.7 0 0 0 -1.21,0.26 2.37,2.37 0 0 0 -0.86,0.7 3.24,3.24 0 0 0 -0.53,1.05 5.27,5.27 0 0 0 -0.21,1.28 z"
       transform="translate(-154.91,-87.13)"
       id="path48"
       style="fill:#1a1a1a" />
    <path
       class="cls-3"
       d="m 379.58,227.25 a 0.37,0.37 0 0 1 -0.09,0.25 0.55,0.55 0 0 1 -0.3,0.18 2.3,2.3 0 0 1 -0.56,0.11 7.41,7.41 0 0 1 -0.89,0 7.31,7.31 0 0 1 -0.89,0 2.4,2.4 0 0 1 -0.57,-0.11 0.49,0.49 0 0 1 -0.29,-0.18 0.37,0.37 0 0 1 -0.09,-0.25 v -19.07 a 0.39,0.39 0 0 1 0.09,-0.26 0.55,0.55 0 0 1 0.29,-0.2 2.94,2.94 0 0 1 0.57,-0.12 7,7 0 0 1 0.89,0 7.16,7.16 0 0 1 0.89,0 2.82,2.82 0 0 1 0.56,0.12 0.63,0.63 0 0 1 0.3,0.2 0.39,0.39 0 0 1 0.09,0.26 z"
       transform="translate(-154.91,-87.13)"
       id="path50"
       style="fill:#1a1a1a" />
    <path
       class="cls-3"
       d="m 396.4,220.65 a 9.62,9.62 0 0 1 -0.44,3 6.38,6.38 0 0 1 -1.32,2.35 6.05,6.05 0 0 1 -2.24,1.52 8.34,8.34 0 0 1 -3.13,0.54 8.68,8.68 0 0 1 -3,-0.48 5.63,5.63 0 0 1 -2.13,-1.39 5.74,5.74 0 0 1 -1.25,-2.25 10.52,10.52 0 0 1 -0.41,-3.05 9.62,9.62 0 0 1 0.45,-3 6.24,6.24 0 0 1 1.33,-2.35 6,6 0 0 1 2.23,-1.52 8.51,8.51 0 0 1 3.13,-0.53 8.65,8.65 0 0 1 3,0.47 5.25,5.25 0 0 1 2.13,1.38 5.72,5.72 0 0 1 1.24,2.25 10.21,10.21 0 0 1 0.41,3.06 z m -3.78,0.15 a 9.74,9.74 0 0 0 -0.15,-1.77 4.24,4.24 0 0 0 -0.52,-1.4 2.6,2.6 0 0 0 -1,-0.92 3,3 0 0 0 -1.52,-0.34 3.25,3.25 0 0 0 -1.44,0.3 2.61,2.61 0 0 0 -1,0.87 4.14,4.14 0 0 0 -0.59,1.38 7.77,7.77 0 0 0 -0.2,1.83 8.72,8.72 0 0 0 0.16,1.76 4.29,4.29 0 0 0 0.52,1.4 2.39,2.39 0 0 0 1,0.92 3.17,3.17 0 0 0 1.52,0.33 3.25,3.25 0 0 0 1.44,-0.3 2.47,2.47 0 0 0 1,-0.86 3.88,3.88 0 0 0 0.58,-1.37 7.86,7.86 0 0 0 0.2,-1.83 z"
       transform="translate(-154.91,-87.13)"
       id="path52"
       style="fill:#1a1a1a" />
    <path
       class="cls-3"
       d="m 408.47,223.59 a 4.44,4.44 0 0 1 -0.41,1.95 3.91,3.91 0 0 1 -1.18,1.41 5.48,5.48 0 0 1 -1.79,0.84 8.5,8.5 0 0 1 -2.25,0.29 9,9 0 0 1 -1.4,-0.11 9.36,9.36 0 0 1 -1.18,-0.28 5.25,5.25 0 0 1 -0.88,-0.34 2.16,2.16 0 0 1 -0.51,-0.32 1.09,1.09 0 0 1 -0.25,-0.48 3.91,3.91 0 0 1 -0.09,-1 5.94,5.94 0 0 1 0,-0.67 1.68,1.68 0 0 1 0.09,-0.41 0.36,0.36 0 0 1 0.15,-0.2 0.35,0.35 0 0 1 0.21,-0.05 1.1,1.1 0 0 1 0.48,0.18 c 0.21,0.12 0.47,0.25 0.78,0.4 a 7.91,7.91 0 0 0 1.09,0.4 4.65,4.65 0 0 0 1.4,0.19 3.41,3.41 0 0 0 0.89,-0.1 2.16,2.16 0 0 0 0.67,-0.29 1.17,1.17 0 0 0 0.43,-0.48 1.41,1.41 0 0 0 0.15,-0.67 1.09,1.09 0 0 0 -0.27,-0.74 2.44,2.44 0 0 0 -0.72,-0.55 8.07,8.07 0 0 0 -1,-0.43 l -1.15,-0.45 a 8.78,8.78 0 0 1 -1.15,-0.57 4.26,4.26 0 0 1 -1,-0.78 3.46,3.46 0 0 1 -0.71,-1.12 4.42,4.42 0 0 1 0.13,-3.21 3.62,3.62 0 0 1 1,-1.32 5,5 0 0 1 1.67,-0.86 7.62,7.62 0 0 1 2.21,-0.3 9.14,9.14 0 0 1 1.19,0.08 8.77,8.77 0 0 1 1.05,0.22 5.27,5.27 0 0 1 0.78,0.28 3.09,3.09 0 0 1 0.46,0.26 0.78,0.78 0 0 1 0.2,0.22 0.88,0.88 0 0 1 0.09,0.26 3.22,3.22 0 0 1 0.05,0.38 c 0,0.15 0,0.34 0,0.56 0,0.22 0,0.47 0,0.64 a 1.71,1.71 0 0 1 -0.07,0.39 0.33,0.33 0 0 1 -0.14,0.19 0.37,0.37 0 0 1 -0.21,0.06 1.07,1.07 0 0 1 -0.4,-0.16 6.93,6.93 0 0 0 -0.7,-0.32 7.64,7.64 0 0 0 -1,-0.33 4.76,4.76 0 0 0 -1.25,-0.15 3.13,3.13 0 0 0 -0.86,0.1 1.68,1.68 0 0 0 -0.6,0.29 1.34,1.34 0 0 0 -0.35,0.44 1.26,1.26 0 0 0 -0.12,0.55 1.09,1.09 0 0 0 0.28,0.75 2.83,2.83 0 0 0 0.73,0.54 8.42,8.42 0 0 0 1,0.43 l 1.17,0.44 a 12.44,12.44 0 0 1 1.17,0.56 4.64,4.64 0 0 1 1,0.79 3.3,3.3 0 0 1 0.73,1.11 3.75,3.75 0 0 1 0.39,1.49 z"
       transform="translate(-154.91,-87.13)"
       id="path54"
       style="fill:#1a1a1a" />
  </g>
  <g
     aria-label="COMUNICAÇÃOESTRATÉGICA"
     transform="matrix(2.8928672,0,0,2.8642248,-233.13739,-60.962345)"
     id="text82"
     style="font-size:13.78px;font-family:Calibri;letter-spacing:0.27em;fill:#ec6511;stroke-width:1.00499"
     class="cls-4">
    <path
       d="m 179.68512,70.601806 q 0.0942,0 0.17494,0.08074 l 0.48445,0.524824 q -0.47772,0.632481 -1.17749,0.982364 -0.69976,0.349883 -1.6754,0.349883 -0.86125,0 -1.56101,-0.329698 -0.69304,-0.329697 -1.19095,-0.921806 -0.49118,-0.598838 -0.76032,-1.426446 -0.26242,-0.834336 -0.26242,-1.836884 0,-1.002549 0.2826,-1.830157 0.2826,-0.834336 0.79397,-1.433173 0.51136,-0.598838 1.22459,-0.928536 0.71322,-0.329697 1.57447,-0.329697 0.85452,0 1.50046,0.302783 0.65266,0.302784 1.13712,0.820879 l -0.40371,0.565196 q -0.0404,0.06056 -0.10093,0.100927 -0.0606,0.04037 -0.15476,0.04037 -0.11438,0 -0.25568,-0.121113 -0.13457,-0.121113 -0.35661,-0.262412 -0.22204,-0.148027 -0.55174,-0.269141 -0.3297,-0.121113 -0.82088,-0.121113 -0.57865,0 -1.06311,0.235498 -0.47772,0.235498 -0.8276,0.686309 -0.34316,0.444082 -0.53828,1.090019 -0.1884,0.639209 -0.1884,1.45336 0,0.820879 0.20185,1.466816 0.20186,0.645937 0.55174,1.09002 0.34988,0.444082 0.82088,0.67958 0.47772,0.235498 1.02273,0.235498 0.33643,0 0.59884,-0.0471 0.26914,-0.0471 0.49118,-0.141299 0.22877,-0.100928 0.4239,-0.248955 0.20186,-0.154756 0.39698,-0.36334 0.10766,-0.0942 0.20859,-0.0942 z"
       style="font-size:13.78px;font-family:Calibri;letter-spacing:0.27em;fill:#ec6511;stroke-width:1.00499"
       id="path79520" />
    <path
       d="m 193.09104,68.024785 q 0,0.99582 -0.29605,1.823427 -0.28933,0.827608 -0.82761,1.426446 -0.53155,0.598837 -1.28515,0.935263 -0.74686,0.329698 -1.66194,0.329698 -0.90835,0 -1.66194,-0.329698 -0.7536,-0.336426 -1.29188,-0.935263 -0.53828,-0.598838 -0.83433,-1.426446 -0.29606,-0.827607 -0.29606,-1.823427 0,-0.989092 0.29606,-1.8167 0.29605,-0.834335 0.83433,-1.433173 0.53828,-0.605567 1.29188,-0.935264 0.75359,-0.336426 1.66194,-0.336426 0.91508,0 1.66194,0.336426 0.7536,0.329697 1.28515,0.935264 0.53828,0.598838 0.82761,1.433173 0.29605,0.827608 0.29605,1.8167 z m -1.2515,0 q 0,-0.807422 -0.20186,-1.446631 -0.19512,-0.645938 -0.56519,-1.09002 -0.36334,-0.45081 -0.88817,-0.686308 -0.51809,-0.242227 -1.16403,-0.242227 -0.64594,0 -1.17076,0.242227 -0.5181,0.235498 -0.88816,0.686308 -0.37007,0.444082 -0.57193,1.09002 -0.19512,0.639209 -0.19512,1.446631 0,0.807421 0.19512,1.453359 0.20186,0.639209 0.57193,1.090019 0.37006,0.444083 0.88816,0.679581 0.52482,0.235498 1.17076,0.235498 0.64594,0 1.16403,-0.235498 0.52483,-0.235498 0.88817,-0.679581 0.37007,-0.45081 0.56519,-1.090019 0.20186,-0.645938 0.20186,-1.453359 z"
       style="letter-spacing:0.28em"
       id="path79522" />
    <path
       d="m 203.05221,69.22246 q 0.0875,0.154756 0.15475,0.316241 0.074,0.161484 0.1413,0.329697 0.0673,-0.174942 0.13457,-0.336426 0.074,-0.161484 0.15476,-0.309512 l 3.12203,-5.416455 q 0.0807,-0.141298 0.17494,-0.168212 0.0942,-0.03364 0.25568,-0.03364 h 0.90163 v 8.841269 h -1.0833 v -6.452646 q 0,-0.13457 0.007,-0.296055 0.0135,-0.168213 0.0269,-0.336426 l -3.15568,5.544297 q -0.15475,0.275869 -0.44408,0.275869 h -0.17494 q -0.28933,0 -0.44408,-0.275869 L 199.594,65.367024 q 0.0404,0.336426 0.0404,0.625752 v 6.452646 h -1.07656 V 63.60415 h 0.90162 q 0.16148,0 0.24896,0.03364 0.0942,0.02691 0.18167,0.174941 l 3.1624,5.409726 z"
       style="letter-spacing:0.28em"
       id="path79524" />
    <path
       d="m 217.49456,71.476513 q 0.53155,0 0.94872,-0.18167 0.4239,-0.188398 0.71322,-0.518096 0.28933,-0.336425 0.43736,-0.793964 0.15475,-0.457539 0.15475,-1.009278 V 63.60415 h 1.22459 v 5.369355 q 0,0.767051 -0.24222,1.419717 -0.24223,0.652666 -0.69304,1.130391 -0.44408,0.477724 -1.09002,0.753593 -0.64594,0.269141 -1.45336,0.269141 -0.80742,0 -1.45336,-0.269141 -0.63921,-0.275869 -1.09002,-0.753593 -0.45081,-0.477725 -0.69303,-1.130391 -0.24223,-0.652666 -0.24223,-1.419717 V 63.60415 h 1.22459 v 5.362627 q 0,0.551738 0.14803,1.016006 0.15475,0.457539 0.44408,0.793964 0.28932,0.329698 0.70649,0.518096 0.4239,0.18167 0.95545,0.18167 z"
       style="letter-spacing:0.28em"
       id="path79526" />
    <path
       d="m 227.40863,63.60415 q 0.15475,0 0.2355,0.04037 0.0807,0.03364 0.18166,0.168213 l 4.80417,6.614131 q -0.0135,-0.161485 -0.0269,-0.316241 -0.007,-0.161484 -0.007,-0.296054 v -6.21042 h 1.07656 v 8.841269 h -0.61902 q -0.1413,0 -0.24223,-0.0471 -0.0942,-0.0471 -0.18839,-0.168213 l -4.80416,-6.593945 q 0.0134,0.154755 0.0202,0.296054 0.007,0.141299 0.007,0.269141 v 6.244062 h -1.07656 V 63.60415 h 0.63921 z"
       style="letter-spacing:0.28em"
       id="path79528" />
    <path
       d="m 240.87534,72.445419 h -1.22459 V 63.60415 h 1.22459 z"
       style="letter-spacing:0.28em"
       id="path79530" />
    <path
       d="m 252.27641,70.601806 q 0.0942,0 0.17494,0.08074 l 0.48445,0.524824 q -0.47772,0.632481 -1.17749,0.982364 -0.69976,0.349883 -1.6754,0.349883 -0.86125,0 -1.56101,-0.329698 -0.69304,-0.329697 -1.19095,-0.921806 -0.49118,-0.598838 -0.76032,-1.426446 -0.26241,-0.834336 -0.26241,-1.836884 0,-1.002549 0.28259,-1.830157 0.2826,-0.834336 0.79397,-1.433173 0.51137,-0.598838 1.22459,-0.928536 0.71322,-0.329697 1.57447,-0.329697 0.85452,0 1.50046,0.302783 0.65267,0.302784 1.13712,0.820879 l -0.40371,0.565196 q -0.0404,0.06056 -0.10093,0.100927 -0.0606,0.04037 -0.15475,0.04037 -0.11439,0 -0.25569,-0.121113 -0.13457,-0.121113 -0.35661,-0.262412 -0.22204,-0.148027 -0.55174,-0.269141 -0.32969,-0.121113 -0.82088,-0.121113 -0.57865,0 -1.0631,0.235498 -0.47773,0.235498 -0.82761,0.686309 -0.34315,0.444082 -0.53828,1.090019 -0.1884,0.639209 -0.1884,1.45336 0,0.820879 0.20186,1.466816 0.20185,0.645937 0.55173,1.09002 0.34989,0.444082 0.82088,0.67958 0.47773,0.235498 1.02274,0.235498 0.33642,0 0.59884,-0.0471 0.26914,-0.0471 0.49118,-0.141299 0.22877,-0.100928 0.42389,-0.248955 0.20186,-0.154756 0.39699,-0.36334 0.10765,-0.0942 0.20858,-0.0942 z"
       style="letter-spacing:0.28em"
       id="path79532" />
    <path
       d="m 265.60121,72.445419 h -0.94872 q -0.16149,0 -0.26241,-0.08074 -0.0942,-0.08074 -0.14803,-0.201855 l -0.75359,-2.126211 h -3.64686 l -0.74686,2.119482 q -0.0404,0.114385 -0.15476,0.201856 -0.10766,0.08747 -0.26241,0.08747 h -0.94872 L 261.046,63.60415 h 1.24478 z m -5.4501,-3.283515 h 3.02783 l -1.2515,-3.559385 q -0.0673,-0.161484 -0.13457,-0.376797 -0.0673,-0.215312 -0.12784,-0.464267 -0.0673,0.255683 -0.13457,0.470996 -0.0673,0.215312 -0.12784,0.376797 z"
       style="letter-spacing:0.28em"
       id="path79534" />
    <path
       d="m 272.90835,74.080449 q 0.0404,0 0.0875,0.02018 0.0538,0.02691 0.12784,0.05383 0.074,0.02691 0.16822,0.0471 0.10093,0.02691 0.24222,0.02691 0.26914,0 0.40371,-0.107656 0.1413,-0.107657 0.1413,-0.275869 0,-0.248956 -0.27587,-0.349883 -0.26914,-0.0942 -0.76705,-0.161485 l 0.26914,-0.820879 q -0.76705,-0.08074 -1.3928,-0.437353 -0.61902,-0.356611 -1.05638,-0.941992 -0.43062,-0.59211 -0.66612,-1.379346 -0.2355,-0.787236 -0.2355,-1.729228 0,-1.002549 0.2826,-1.830157 0.2826,-0.834336 0.79397,-1.433173 0.51136,-0.598838 1.22459,-0.928536 0.71322,-0.329697 1.57447,-0.329697 0.85452,0 1.50046,0.302783 0.65266,0.302784 1.13712,0.820879 l -0.40371,0.565196 q -0.0404,0.06056 -0.10093,0.100927 -0.0606,0.04037 -0.15476,0.04037 -0.11438,0 -0.25568,-0.121113 -0.13457,-0.121113 -0.35661,-0.262412 -0.22204,-0.148027 -0.55174,-0.269141 -0.3297,-0.121113 -0.82088,-0.121113 -0.57865,0 -1.06311,0.235498 -0.47772,0.235498 -0.8276,0.686309 -0.34316,0.444082 -0.53828,1.090019 -0.1884,0.639209 -0.1884,1.45336 0,0.820879 0.20185,1.466816 0.20186,0.645937 0.55174,1.09002 0.34988,0.444082 0.82088,0.67958 0.47772,0.235498 1.02273,0.235498 0.33643,0 0.59884,-0.0471 0.26914,-0.0471 0.49118,-0.141299 0.22877,-0.100928 0.4239,-0.248955 0.20186,-0.154756 0.39698,-0.36334 0.10766,-0.0942 0.20859,-0.0942 0.0942,0 0.17494,0.08074 l 0.48445,0.524824 q -0.45081,0.59211 -1.08329,0.935264 -0.63248,0.343154 -1.51392,0.390254 l -0.11438,0.396982 q 0.60557,0.121114 0.86798,0.349883 0.26914,0.22877 0.26914,0.578653 0,0.208584 -0.10766,0.376796 -0.10093,0.168213 -0.28932,0.282598 -0.18167,0.114385 -0.44409,0.174941 -0.26241,0.06729 -0.57192,0.06729 -0.26241,0 -0.50464,-0.05383 -0.24222,-0.05383 -0.44408,-0.148028 l 0.11438,-0.36334 q 0.0404,-0.114384 0.14803,-0.114384 z"
       style="letter-spacing:0.28em"
       id="path79536" />
    <path
       d="m 280.86367,72.445419 z m 7.87237,0 h -0.94872 q -0.16149,0 -0.26242,-0.08074 -0.0942,-0.08074 -0.14802,-0.201855 l -0.7536,-2.126211 h -3.64685 l -0.74687,2.119482 q -0.0404,0.114385 -0.15475,0.201856 -0.10766,0.08747 -0.26242,0.08747 h -0.94872 l 3.31716,-8.841269 h 1.24478 z m -5.4501,-3.283515 h 3.02783 l -1.2515,-3.559385 q -0.0673,-0.161484 -0.13457,-0.376797 -0.0673,-0.215312 -0.12785,-0.464267 -0.0673,0.255683 -0.13457,0.470996 -0.0673,0.215312 -0.12784,0.376797 z m 2.31461,-7.004385 q 0.14803,0 0.26241,-0.05383 0.11438,-0.06056 0.1884,-0.148027 0.0807,-0.0942 0.12111,-0.208584 0.0404,-0.121114 0.0404,-0.235498 h 0.71995 q 0,0.282597 -0.0807,0.538281 -0.074,0.255683 -0.22877,0.457539 -0.14802,0.195127 -0.37007,0.31624 -0.22204,0.114385 -0.51136,0.114385 -0.29606,0 -0.53156,-0.107656 -0.22877,-0.107657 -0.43062,-0.22877 -0.19513,-0.127842 -0.37007,-0.235498 -0.17494,-0.107656 -0.35661,-0.107656 -0.14803,0 -0.26241,0.06056 -0.10766,0.05383 -0.18167,0.148028 -0.074,0.0942 -0.11439,0.215312 -0.0404,0.114385 -0.0404,0.22877 h -0.73341 q 0,-0.282598 0.0808,-0.538281 0.0807,-0.262412 0.22877,-0.457539 0.15475,-0.201856 0.37679,-0.322969 0.22877,-0.121113 0.51137,-0.121113 0.29605,0 0.52482,0.107656 0.2355,0.107656 0.43063,0.235498 0.20185,0.127842 0.37007,0.235498 0.17494,0.107656 0.35661,0.107656 z"
       style="letter-spacing:0.27em"
       id="path79538" />
    <path
       d="m 301.21766,68.024785 q 0,0.99582 -0.29605,1.823427 -0.28933,0.827608 -0.82761,1.426446 -0.53155,0.598837 -1.28515,0.935263 -0.74686,0.329698 -1.66194,0.329698 -0.90835,0 -1.66194,-0.329698 -0.7536,-0.336426 -1.29188,-0.935263 -0.53828,-0.598838 -0.83434,-1.426446 -0.29605,-0.827607 -0.29605,-1.823427 0,-0.989092 0.29605,-1.8167 0.29606,-0.834335 0.83434,-1.433173 0.53828,-0.605567 1.29188,-0.935264 0.75359,-0.336426 1.66194,-0.336426 0.91508,0 1.66194,0.336426 0.7536,0.329697 1.28515,0.935264 0.53828,0.598838 0.82761,1.433173 0.29605,0.827608 0.29605,1.8167 z m -1.2515,0 q 0,-0.807422 -0.20186,-1.446631 -0.19513,-0.645938 -0.56519,-1.09002 -0.36334,-0.45081 -0.88817,-0.686308 -0.51809,-0.242227 -1.16403,-0.242227 -0.64594,0 -1.17076,0.242227 -0.5181,0.235498 -0.88817,0.686308 -0.37007,0.444082 -0.57192,1.09002 -0.19513,0.639209 -0.19513,1.446631 0,0.807421 0.19513,1.453359 0.20185,0.639209 0.57192,1.090019 0.37007,0.444083 0.88817,0.679581 0.52482,0.235498 1.17076,0.235498 0.64594,0 1.16403,-0.235498 0.52483,-0.235498 0.88817,-0.679581 0.37006,-0.45081 0.56519,-1.090019 0.20186,-0.645938 0.20186,-1.453359 z"
       style="letter-spacing:0.28em"
       id="path79540" />
    <path
       d="m 318.86134,63.60415 v 0.99582 h -3.93619 v 2.89999 h 3.16913 v 0.962178 h -3.16913 v 2.987461 h 3.94291 l -0.007,0.99582 h -5.1675 V 63.60415 Z"
       style="letter-spacing:0.27em"
       id="path79542" />
    <path
       d="m 328.6332,64.996953 q -0.10093,0.188398 -0.27587,0.188398 -0.10093,0 -0.24223,-0.100928 -0.13457,-0.107656 -0.33643,-0.228769 -0.19512,-0.127842 -0.47772,-0.22877 -0.27587,-0.107656 -0.66612,-0.107656 -0.37007,0 -0.65267,0.107656 -0.27587,0.100928 -0.46427,0.289326 -0.18167,0.18167 -0.27587,0.430625 -0.0942,0.242227 -0.0942,0.524825 0,0.370068 0.16822,0.612295 0.17494,0.242226 0.45081,0.417168 0.2826,0.168212 0.63921,0.296054 0.35661,0.127842 0.72668,0.262412 0.37007,0.134571 0.72668,0.309512 0.35661,0.168213 0.63248,0.430625 0.28259,0.255684 0.45081,0.63248 0.17494,0.376797 0.17494,0.921807 0,0.585381 -0.1884,1.096748 -0.1884,0.504639 -0.55174,0.881436 -0.35661,0.376797 -0.88143,0.592109 -0.52483,0.215313 -1.19768,0.215313 -0.81415,0 -1.50046,-0.309512 -0.67958,-0.31624 -1.1573,-0.847793 l 0.35661,-0.578652 q 0.0471,-0.07401 0.11438,-0.114385 0.074,-0.0471 0.16822,-0.0471 0.12784,0 0.28259,0.141299 0.16149,0.13457 0.39699,0.302783 0.23549,0.161485 0.56519,0.302783 0.33643,0.134571 0.80069,0.134571 0.39026,0 0.69304,-0.114385 0.30279,-0.114385 0.51137,-0.322969 0.21531,-0.208584 0.32297,-0.49791 0.11438,-0.296055 0.11438,-0.652666 0,-0.396982 -0.17494,-0.652666 -0.16821,-0.255684 -0.45081,-0.423896 -0.27587,-0.174942 -0.63248,-0.289327 -0.35661,-0.121113 -0.72668,-0.248955 -0.37007,-0.127841 -0.72668,-0.289326 -0.35661,-0.168213 -0.63921,-0.437353 -0.27587,-0.269141 -0.45081,-0.666123 -0.16821,-0.396983 -0.16821,-0.989092 0,-0.464268 0.17494,-0.901621 0.17494,-0.444082 0.50464,-0.780508 0.33642,-0.343154 0.82088,-0.54501 0.49118,-0.208584 1.12366,-0.208584 0.70649,0 1.29187,0.235498 0.59211,0.235498 1.02274,0.686309 z"
       style="letter-spacing:0.28em"
       id="path79544" />
    <path
       d="m 340.00465,63.60415 v 1.022734 h -2.57702 v 7.818535 h -1.23132 v -7.818535 h -2.58375 V 63.60415 Z"
       style="letter-spacing:0.28em"
       id="path79546" />
    <path
       d="m 346.23822,68.77165 v 3.673769 h -1.22459 V 63.60415 h 2.42227 q 0.80742,0 1.3928,0.174941 0.59211,0.168213 0.9689,0.491182 0.38353,0.31624 0.5652,0.773779 0.18167,0.450811 0.18167,1.016006 0,0.464268 -0.1413,0.867979 -0.13457,0.403711 -0.39698,0.726679 -0.25569,0.322969 -0.63248,0.558467 -0.3768,0.22877 -0.85452,0.349883 0.11438,0.07401 0.21531,0.168213 0.10093,0.08747 0.19513,0.215312 l 2.37516,3.498828 h -1.09002 q -0.31624,0 -0.49118,-0.248955 l -2.09257,-3.148945 q -0.10093,-0.148027 -0.22204,-0.208584 -0.11438,-0.06729 -0.34988,-0.06729 z m 0,-0.894893 h 1.15058 q 0.48445,0 0.84779,-0.121113 0.37007,-0.127842 0.61902,-0.356611 0.24896,-0.22877 0.37007,-0.54501 0.12784,-0.322969 0.12784,-0.706494 0,-1.581201 -1.91762,-1.581201 h -1.19768 z"
       style="letter-spacing:0.28em"
       id="path79548" />
    <path
       d="m 363.48701,72.445419 h -0.94872 q -0.16148,0 -0.26241,-0.08074 -0.0942,-0.08074 -0.14803,-0.201855 l -0.75359,-2.126211 h -3.64686 l -0.74686,2.119482 q -0.0404,0.114385 -0.15476,0.201856 -0.10765,0.08747 -0.26241,0.08747 h -0.94872 l 3.31716,-8.841269 h 1.24477 z m -5.45009,-3.283515 h 3.02783 l -1.25151,-3.559385 q -0.0673,-0.161484 -0.13457,-0.376797 -0.0673,-0.215312 -0.12784,-0.464267 -0.0673,0.255683 -0.13457,0.470996 -0.0673,0.215312 -0.12784,0.376797 z"
       style="letter-spacing:0.2em"
       id="path79550" />
    <path
       d="m 372.96825,63.60415 v 1.022734 h -2.57702 v 7.818535 h -1.23132 v -7.818535 h -2.58375 V 63.60415 Z"
       style="letter-spacing:0.28em"
       id="path79552" />
    <path
       d="m 378.05324,72.445419 z m 5.1675,-8.841269 v 0.99582 h -3.93618 v 2.89999 h 3.16913 v 0.962178 h -3.16913 v 2.987461 h 3.94291 l -0.007,0.99582 h -5.1675 V 63.60415 Z m -0.20185,-2.664492 -2.10603,1.863799 q -0.10093,0.08747 -0.19513,0.107656 -0.0875,0.02018 -0.22204,0.02018 h -0.84779 l 1.48027,-1.776328 q 0.0606,-0.06728 0.11439,-0.107656 0.0538,-0.0471 0.11438,-0.06728 0.0673,-0.02691 0.1413,-0.03364 0.0807,-0.0067 0.1884,-0.0067 z"
       style="letter-spacing:0.27em"
       id="path79554" />
    <path
       d="m 395.57311,71.590898 q -0.64593,0.477724 -1.37934,0.713222 -0.72668,0.235499 -1.5812,0.235499 -1.02947,0 -1.8638,-0.329698 -0.82761,-0.329697 -1.41299,-0.921806 -0.58538,-0.598838 -0.90162,-1.426446 -0.31624,-0.834336 -0.31624,-1.836884 0,-1.009278 0.30278,-1.836885 0.30951,-0.834336 0.87471,-1.426445 0.57192,-0.598838 1.37934,-0.928536 0.80743,-0.329697 1.80998,-0.329697 0.51136,0 0.94199,0.08074 0.43735,0.07401 0.80742,0.222041 0.37007,0.141299 0.67958,0.349883 0.31624,0.208584 0.58538,0.464268 l -0.34315,0.551738 q -0.0808,0.13457 -0.21532,0.168213 -0.13457,0.03364 -0.28932,-0.06056 -0.15476,-0.08747 -0.34316,-0.208584 -0.18167,-0.127841 -0.43735,-0.235498 -0.25568,-0.114384 -0.60557,-0.195127 -0.34988,-0.08074 -0.8276,-0.08074 -0.69977,0 -1.27169,0.242227 -0.5652,0.242226 -0.96891,0.693037 -0.39698,0.45081 -0.61229,1.096748 -0.21532,0.639209 -0.21532,1.433174 0,0.827607 0.22204,1.487002 0.22877,0.652666 0.64594,1.110205 0.4239,0.45081 1.01601,0.693037 0.59211,0.235498 1.32551,0.235498 0.5652,0 1.00928,-0.127842 0.44408,-0.13457 0.87471,-0.370068 v -1.937813 h -1.27169 q -0.12111,0 -0.19513,-0.06729 -0.074,-0.06728 -0.074,-0.168213 v -0.693037 h 2.65103 v 3.404629 z"
       style="letter-spacing:0.28em"
       id="path79556" />
    <path
       d="m 402.49972,72.445419 h -1.22459 V 63.60415 h 1.22459 z"
       style="letter-spacing:0.28em"
       id="path79558" />
    <path
       d="m 413.90078,70.601806 q 0.0942,0 0.17494,0.08074 l 0.48446,0.524824 q -0.47773,0.632481 -1.17749,0.982364 -0.69977,0.349883 -1.6754,0.349883 -0.86125,0 -1.56102,-0.329698 -0.69304,-0.329697 -1.19095,-0.921806 -0.49118,-0.598838 -0.76032,-1.426446 -0.26241,-0.834336 -0.26241,-1.836884 0,-1.002549 0.2826,-1.830157 0.28259,-0.834336 0.79396,-1.433173 0.51137,-0.598838 1.22459,-0.928536 0.71322,-0.329697 1.57447,-0.329697 0.85453,0 1.50046,0.302783 0.65267,0.302784 1.13712,0.820879 l -0.40371,0.565196 q -0.0404,0.06056 -0.10093,0.100927 -0.0605,0.04037 -0.15475,0.04037 -0.11439,0 -0.25569,-0.121113 -0.13457,-0.121113 -0.35661,-0.262412 -0.22204,-0.148027 -0.55174,-0.269141 -0.32969,-0.121113 -0.82087,-0.121113 -0.57866,0 -1.06311,0.235498 -0.47772,0.235498 -0.82761,0.686309 -0.34315,0.444082 -0.53828,1.090019 -0.1884,0.639209 -0.1884,1.45336 0,0.820879 0.20186,1.466816 0.20185,0.645937 0.55174,1.09002 0.34988,0.444082 0.82088,0.67958 0.47772,0.235498 1.02273,0.235498 0.33643,0 0.59884,-0.0471 0.26914,-0.0471 0.49118,-0.141299 0.22877,-0.100928 0.4239,-0.248955 0.20185,-0.154756 0.39698,-0.36334 0.10766,-0.0942 0.20858,-0.0942 z"
       style="letter-spacing:0.28em"
       id="path79560" />
    <path
       d="m 426.61391,72.445419 h -0.94872 q -0.16149,0 -0.26241,-0.08074 -0.0942,-0.08074 -0.14803,-0.201855 l -0.7536,-2.126211 h -3.64685 l -0.74687,2.119482 q -0.0404,0.114385 -0.15475,0.201856 -0.10766,0.08747 -0.26241,0.08747 h -0.94872 l 3.31715,-8.841269 h 1.24478 z m -5.4501,-3.283515 h 3.02783 l -1.2515,-3.559385 q -0.0673,-0.161484 -0.13457,-0.376797 -0.0673,-0.215312 -0.12784,-0.464267 -0.0673,0.255683 -0.13457,0.470996 -0.0673,0.215312 -0.12784,0.376797 z"
       style="letter-spacing:0.28em"
       id="path79562" />
  </g>
</svg>
